<?xml version="1.0" encoding="UTF-8"?>
<svg width="20px" height="20px" viewBox="0 0 20 20" version="1.1" xmlns="http://www.w3.org/2000/svg" xmlns:xlink="http://www.w3.org/1999/xlink">
    <!-- Generator: Sketch 50.2 (55047) - http://www.bohemiancoding.com/sketch -->
    <title>Icon/Running</title>
    <desc>Created with Sketch.</desc>
    <defs>
        <path d="M10,-5.68434189e-14 C4.46666667,-5.68434189e-14 0,4.46666667 0,10 C0,15.5333333 4.46666667,20 10,20 C15.5333333,20 20,15.5333333 20,10 C20,4.46666667 15.5333333,-5.68434189e-14 10,-5.68434189e-14 Z" id="path-1"></path>
        <path d="M10,3 C13.8733333,3 17,6.12666667 17,10 C17,13.8733333 13.8733333,17 10,17 C6.12666667,17 3,13.8733333 3,10 C3,6.12666667 6.12666667,3 10,3 Z" id="path-3"></path>
    </defs>
    <g id="Page-1" stroke="none" stroke-width="1" fill="none" fill-rule="evenodd">
        <g id="Build-Status-running-Copy" transform="translate(-116.000000, -1011.000000)">
            <g id="build-status" transform="translate(0.000000, 973.000000)">
                <g id="Icon/Animation-running" transform="translate(116.000000, 38.000000)">
                    <mask id="mask-2" fill="white">
                        <use xlink:href="#path-1"></use>
                    </mask>
                    <g id="Shape" fill-rule="nonzero" transform="translate(10.000000, 10.000000) scale(-1, 1) rotate(180.000000) translate(-10.000000, -10.000000) "></g>
                    <g id="color/blue" opacity="0.5" mask="url(#mask-2)" fill="#008BD0" fill-rule="evenodd">
                        <rect x="0" y="0" width="20" height="20"></rect>
                    </g>
                    <mask id="mask-4" fill="white">
                        <use xlink:href="#path-3"></use>
                    </mask>
                    <g id="Shape" fill-rule="nonzero"></g>
                    <g id="color/blue" mask="url(#mask-4)" fill="#008BD0" fill-rule="evenodd">
                        <rect x="0" y="0" width="20" height="20"></rect>
                    </g>
                </g>
            </g>
        </g>
    </g>
</svg>