<svg viewBox="0 0 1024 1024" version="1.1" xmlns="http://www.w3.org/2000/svg" width="30" height="30">
    <path d="M512 0C230.4 0 0 230.4 0 512s230.4 512 512 512 512-230.4 512-512-230.4-512-512-512z m256 761.6c-12.8 12.8-32 19.2-44.8 19.2s-32-6.4-38.4-19.2L531.2 620.8c-6.4-6.4-12.8-12.8-19.2-12.8-6.4 0-12.8 6.4-19.2 6.4L339.2 768c-12.8 12.8-25.6 19.2-38.4 19.2-19.2 0-32-6.4-38.4-19.2l-6.4-6.4c-12.8-12.8-19.2-25.6-19.2-38.4 0-19.2 6.4-32 19.2-38.4l153.6-147.2c0-12.8 6.4-19.2 6.4-25.6 0-6.4-6.4-12.8-6.4-19.2L256 339.2c-12.8-6.4-19.2-19.2-19.2-38.4s6.4-32 19.2-38.4V256c12.8-12.8 25.6-19.2 38.4-19.2 19.2 0 57.6 32 64 44.8l121.6 121.6c19.2 6.4 25.6 12.8 32 12.8 6.4 0 12.8-6.4 19.2-6.4L684.8 256c12.8-12.8 25.6-19.2 38.4-19.2 19.2 0 32 6.4 38.4 19.2l6.4 6.4c12.8 12.8 19.2 25.6 19.2 38.4 0 19.2-6.4 32-19.2 38.4L620.8 492.8c-6.4 6.4-12.8 12.8-12.8 19.2 0 6.4 6.4 12.8 6.4 19.2l147.2 147.2c12.8 12.8 19.2 25.6 19.2 38.4 6.4 19.2 0 38.4-12.8 44.8z" fill="#d81e06"></path>
</svg>
