<svg viewBox="0 0 1024 1024" version="1.1" xmlns="http://www.w3.org/2000/svg" width="30" height="40">
    <path d="M62.205158 289.127526l835.047421-0.736345c22.69864 0 47.63833-0.25612 58.171267 31.758887L960.450202 320.150067 960.450202 160.715334C960.450202 125.402781 934.454016 96.04502 899.077434 96.04502L517.170419 96.04502 480.225101 32.527247C470.108359 18.056464 450.22704 0 417.635763 0L96.4292 0C78.788932 0 64.030013 14.694888 64.030013 32.303142l0 64.222103c-32.015007 0-64.030013 28.877536-64.030013 64.190088L0 320.150067l5.506581 0C17.640269 288.135061 41.875629 289.127526 62.205158 289.127526z"></path>
    <path d="M960.450202 599.160851 960.450202 416.835388c0-35.312552-26.0282-64.670314-61.372768-64.670314L64.030013 352.645299c-32.015007 0-64.030013 28.877536-64.030013 64.190088l0 385.172546C0 837.320486 28.941566 864.405182 64.286134 864.405182l467.066933 0c38.097858 93.579865 129.724807 159.594809 236.97508 159.594809 141.4423 0 256.152069-114.709769 256.152069-256.216099C1024.480215 703.049548 1000.116795 644.205965 960.450202 599.160851zM768.328146 927.95497c-88.329404 0-160.171079-71.841675-160.171079-160.171079 0-88.297389 71.841675-160.107049 160.171079-160.107049 88.297389 0 160.107049 71.80966 160.107049 160.107049C928.435195 856.113295 856.625535 927.95497 768.328146 927.95497z"></path>
    <path d="M832.390175 736.345155l-32.015007 0 0-32.015007c0-17.704299-14.310708-32.015007-32.015007-32.015007s-32.015007 14.310708-32.015007 32.015007l0 32.015007-32.015007 0c-17.704299 0-32.015007 14.310708-32.015007 32.015007s14.310708 32.015007 32.015007 32.015007l32.015007 0 0 32.015007c0 17.704299 14.310708 32.015007 32.015007 32.015007s32.015007-14.310708 32.015007-32.015007l0-32.015007 32.015007 0c17.704299 0 32.015007-14.310708 32.015007-32.015007S850.094474 736.345155 832.390175 736.345155z"></path>
</svg>
