<svg viewBox="0 0 1024 1024" version="1.1" xmlns="http://www.w3.org/2000/svg" width="200" height="200">
    <path fill="#ffffff" d="M616.96 404.48c20.48 20.48 56.32 20.48 76.8 0l197.12-194.56v156.16c0 23.04 17.92 40.96 38.4 40.96h28.16c23.04 0 43.52-15.36 43.52-35.84V66.56c0-10.24-2.56-20.48-10.24-28.16S972.8 25.6 960 25.6H655.36c-23.04 0-40.96 17.92-40.96 40.96v28.16c2.56 25.6 23.04 40.96 46.08 40.96h151.04l-194.56 192c-20.48 23.04-20.48 56.32 0 76.8zM409.6 619.52c-20.48-20.48-56.32-20.48-76.8 0l-197.12 192v-153.6c0-23.04-17.92-43.52-38.4-43.52H69.12c-23.04 0-43.52 17.92-43.52 38.4V957.44c0 10.24 2.56 20.48 10.24 28.16 5.12 7.68 15.36 12.8 28.16 12.8H368.64c23.04 0 40.96-17.92 40.96-40.96v-28.16c0-25.6-23.04-38.4-46.08-38.4H212.48L409.6 696.32c20.48-23.04 20.48-56.32 0-76.8z m0 0"></path>
</svg>
