<?xml version="1.0" encoding="UTF-8"?>
<svg width="39px" height="40px" viewBox="0 0 39 40" version="1.1" xmlns="http://www.w3.org/2000/svg" xmlns:xlink="http://www.w3.org/1999/xlink">
    <!-- Generator: Sketch 50.2 (55047) - http://www.bohemiancoding.com/sketch -->
    <title>Category Icon/Zen Blue Connector</title>
    <desc>Created with Sketch.</desc>
    <defs></defs>
    <g id="Symbols" stroke="none" stroke-width="1" fill="none" fill-rule="evenodd">
        <g id="Runner-Overlay---Define-Workflow-Input-Test-Files" transform="translate(-502.000000, -281.000000)" fill="#FFFFFF" fill-rule="nonzero">
            <g id="Group" transform="translate(476.000000, 259.000000)">
                <g id="Category-Icon/Zen-Blue-Connector" transform="translate(25.000000, 21.000000)">
                    <path d="M28.5974298,32.9430452 L12.1510361,32.9430452 C11.4610562,31.7912092 10.9555796,30.5207235 10.6777022,29.1658054 L26.7972868,29.1658054 C27.1689872,29.1658054 27.470657,28.8676257 27.470657,28.4992337 C27.470657,28.1312861 27.1689872,27.832662 26.7972868,27.832662 L10.4819759,27.832662 C10.4487563,27.466492 10.4258617,27.0972112 10.4258617,26.7217092 C10.4258617,22.8231534 12.2704471,19.3569805 15.1425955,17.1177439 L16.7878633,22.314337 C17.028032,23.0715625 17.7409066,23.5599373 18.5054062,23.5599373 C18.6822781,23.5599373 18.8613946,23.5337188 19.0387154,23.4786156 L23.8120123,21.9974932 C24.7542816,21.7055348 25.2835506,20.7025666 24.9881656,19.7698106 L20.0200403,4.08048996 C19.7803205,3.32282011 19.066997,2.83488962 18.3029463,2.83488962 C18.1260743,2.83488962 17.9469579,2.8611081 17.7696371,2.91576698 L17.661,2.94953995 L17.5267749,2.52560034 C17.2870551,1.76837488 16.5737316,1.28 15.8096809,1.28 C15.632809,1.28 15.4532436,1.30621849 15.2763717,1.36132175 L14.1469054,1.71149409 C13.204636,2.00389688 12.6753671,3.00642074 12.9707521,3.93917676 L13.1054262,4.36356075 L12.9967891,4.39733371 C12.0540708,4.68929212 11.5248019,5.69226036 11.8201869,6.62501638 L13.0421294,10.4840222 C7.44732088,13.7742202 3.69215976,19.8115824 3.69215976,26.7217092 C3.69215976,28.9000655 4.06745141,30.9939895 4.7538401,32.9430452 L4.35565385,32.9430452 C3.36804423,32.9430452 2.56,33.7429312 2.56,34.7205697 L2.56,36.9424754 C2.56,37.9201139 3.36804423,38.72 4.35565385,38.72 L26.3524136,38.72 C27.3400232,38.72 28.4380655,37.9734397 28.7927072,37.0611252 L29.7484439,34.6023643 C30.1026366,33.6900499 29.5850394,32.9430452 28.5974298,32.9430452 Z M23.6706045,20.5065945 C23.6378339,20.5683635 23.5606207,20.67857 23.408888,20.7256744 L18.63604,22.2067968 C18.5929444,22.2196838 18.5493997,22.2267939 18.5054062,22.2267939 C18.3446952,22.2267939 18.1404396,22.1290301 18.0731026,21.9157271 L17.468865,20.0075545 L23.0367387,18.2793562 C23.0578377,18.2726905 23.076692,18.2624697 23.0964442,18.2540265 L23.7029263,20.1688648 C23.7505111,20.3190657 23.7029263,20.4448255 23.6706045,20.5065945 Z M14.2555425,3.54012249 C14.1828185,3.31037744 14.3179414,3.05530266 14.5491319,2.98331292 L15.6790471,2.63314058 C15.7221428,2.61980914 15.7656874,2.61314343 15.8096809,2.61314343 C15.969943,2.61314343 16.1741986,2.7104629 16.2419845,2.92421023 L16.3762097,3.34814984 L14.3897676,3.96450648 L14.2555425,3.54012249 Z M13.137299,5.88823245 C13.1700697,5.82646347 13.2472828,5.71625694 13.3994645,5.66915254 L18.1727613,4.1880302 C18.2154081,4.17469876 18.2589527,4.16803304 18.3029463,4.16803304 C18.4632084,4.16803304 18.667464,4.26535251 18.7352499,4.47909984 L22.698258,16.994206 C22.6767101,16.9986498 22.6551623,17.0008717 22.6340633,17.007093 L17.0661897,18.7348469 L13.1049773,6.22596211 C13.0578413,6.07576129 13.1049773,5.95000142 13.137299,5.88823245 Z M5.03890015,26.7217092 C5.03845123,20.4106082 8.40664895,14.8869506 13.4560276,11.7918359 L14.7152299,15.7681584 C11.3025897,18.2313631 9.07912132,22.2196838 9.07912132,26.7212648 C9.0786724,28.9631676 9.63442727,31.0788663 10.6094673,32.9426008 L6.18946535,32.9426008 C5.44875814,31.0090984 5.03890015,28.9151745 5.03890015,26.7217092 Z M27.5357495,36.5825267 C27.3813232,36.9806922 26.7842683,37.3868566 26.3528625,37.3868566 L4.35610277,37.3868566 C4.11279167,37.3868566 3.9071893,37.18333 3.9071893,36.9424754 L3.9071893,34.7205697 C3.9071893,34.4797151 4.11279167,34.2761886 4.35610277,34.2761886 L28.4326786,34.2761886 L27.5357495,36.5825267 Z" id="Shape"></path>
                    <path d="M35.8342037,15.7470239 L28.6453267,15.7470239 C28.2918644,15.7470239 28.0053267,15.4604862 28.0053267,15.1070239 C28.0053267,14.7535617 28.2918644,14.4670239 28.6453267,14.4670239 L35.9199763,14.4670239 L34.1023116,12.6073492 C33.8552474,12.3545749 33.8598765,11.9493758 34.1126508,11.7023116 C34.3654251,11.4552474 34.7706242,11.4598765 35.0176884,11.7126508 L38.2946067,15.0653055 L35.0170765,18.4094296 C34.7696671,18.661866 34.364462,18.6659411 34.1120256,18.4185317 C33.8595892,18.1711223 33.8555141,17.7659172 34.1029235,17.5134808 L35.8342037,15.7470239 Z" id="Combined-Shape"></path>
                </g>
            </g>
        </g>
    </g>
</svg>