<svg viewBox="0 0 1024 1024" version="1.1" xmlns="http://www.w3.org/2000/svg" width="30" height="30">
    <path d="M485.834061 438.673971c0 30.56104-25.00244 55.570643-55.570643 55.570643L232.744855 494.244614c-30.56104 0-55.570643-25.00858-55.570643-55.570643L177.174212 232.744855c0-30.562063 25.00858-55.571666 55.570643-55.571666l197.518562 0c30.566156 0 55.570643 25.009603 55.570643 55.571666L485.834061 438.673971 485.834061 438.673971zM485.834061 791.255145c0 30.562063-25.00244 55.570643-55.570643 55.570643L232.744855 846.825788c-30.56104 0-55.570643-25.00858-55.570643-55.570643L177.174212 585.330122c0-30.567179 25.00858-55.570643 55.570643-55.570643l197.518562 0c30.566156 0 55.570643 25.009603 55.570643 55.570643L485.834061 791.255145 485.834061 791.255145zM846.818625 438.673971c0 30.56104-25.00551 55.570643-55.571666 55.570643L593.72021 494.244614c-30.566156 0-55.571666-25.00858-55.571666-55.570643L538.148543 232.744855c0-30.562063 25.00551-55.571666 55.571666-55.571666l197.527772 0c30.566156 0 55.570643 25.009603 55.570643 55.571666L846.818625 438.673971 846.818625 438.673971zM846.825788 791.255145c0 30.562063-25.009603 55.570643-55.57576 55.570643L593.722256 846.825788c-30.566156 0-55.571666-25.00858-55.571666-55.570643L538.15059 585.330122c0-30.567179 25.00551-55.570643 55.571666-55.570643l197.527772 0c30.565133 0 55.57576 25.009603 55.57576 55.570643L846.825788 791.255145 846.825788 791.255145zM846.825788 791.255145 846.825788 791.255145"></path>
</svg>
