<svg width="56" height="60" viewBox="0 0 47 47" version="1.1" xmlns="http://www.w3.org/2000/svg">    <path d="M23.4566408,41.9772887 C15.0979225,41.9772887 7.15359859,43.7745423 0,47.000331 L0,0.0887042254 L46.9112958,0.0887042254 L46.9043451,47.000331 C39.7504155,43.7745423 31.8133732,41.9772887 23.4566408,41.9772887 Z"          fill="#174489"></path>    <path d="M5.62146479,14.3038873 C3.41875352,14.3038873 3.23803521,16.5380423 3.23803521,16.5380423 L2.18516901,16.5380423 L2.18516901,13.2285141 L10.3919648,13.2285141 C10.3919648,13.2285141 10.4598169,15.7853803 8.0300493,18.5011197 C8.0300493,18.5011197 5.72042958,21.1860775 5.66019014,22.3600845 L6.99207746,22.3600845 C8.90252817,22.3600845 9.09780986,20.1265915 9.09780986,20.1265915 L10.1970141,20.1265915 L10.1970141,23.4434014 L1.80850704,23.4434014 C1.80850704,23.4434014 1.49969718,20.9312183 4.41138028,17.8772113 C4.41138028,17.8772113 6.2016831,15.8764014 6.61541549,14.2966056 L5.62146479,14.3038873"          fill="#FFFFFF"></path>    <path d="M26.5281901,23.4357887 L26.5281901,22.3528028 L26.2799507,22.3528028 C25.8288169,22.3528028 25.4600986,21.9837535 25.4600986,21.5326197 L25.4600986,15.1316831 C25.4600986,14.6802183 25.8288169,14.311831 26.2799507,14.311831 L26.5281901,14.311831 L26.5281901,13.2285141 L21.0887676,13.2285141 L21.0887676,14.311831 L21.337338,14.311831 C21.7967465,14.311831 22.1654648,14.6802183 22.1654648,15.1316831 L22.1654648,21.5326197 C22.1654648,21.9837535 21.7967465,22.3528028 21.337338,22.3528028 L21.0887676,22.3528028 L21.0887676,23.4357887 L26.5281901,23.4357887"          fill="#FFFFFF"></path>    <path d="M19.9617606,23.4434014 L19.9617606,20.1259296 L18.8625563,20.1259296 C18.8625563,20.1259296 18.659331,22.3600845 16.7485493,22.3600845 L15.650669,22.3600845 L15.650669,18.8767887 L16.0412324,18.8767887 C16.5003099,18.8767887 16.8690282,19.245838 16.8690282,19.7055775 L16.8690282,20.1179859 L17.9523451,20.1179859 L17.9523451,16.5456549 L16.8690282,16.5456549 L16.8690282,16.9597183 C16.8690282,17.4184648 16.5003099,17.7868521 16.0412324,17.7868521 L15.650669,17.7868521 L15.650669,14.3038873 L16.7485493,14.3038873 C18.659331,14.3038873 18.8625563,16.5380423 18.8625563,16.5380423 L19.9617606,16.5380423 L19.9617606,13.2215634 L11.3097887,13.2215634 L11.3097887,14.3115 L11.5580282,14.3115 C12.009493,14.3115 12.3775493,14.6805493 12.3775493,15.1316831 L12.3775493,21.5326197 C12.3775493,21.9837535 12.009493,22.3521408 11.5580282,22.3521408 L11.3097887,22.3521408 L11.3097887,23.4357887 L19.9617606,23.4434014"          fill="#FFFFFF"></path>    <path d="M32.2456408,14.3038873 C34.450007,14.3038873 34.6224507,16.5380423 34.6224507,16.5380423 L35.6839225,16.5380423 L35.6839225,13.2285141 L27.8369085,13.2285141 C27.8369085,13.2285141 26.5960423,14.852993 29.8380493,18.5011197 C29.8380493,18.5011197 32.1400563,21.1860775 32.1999648,22.3600845 L30.8763521,22.3600845 C28.9662324,22.3600845 28.7623451,20.1265915 28.7623451,20.1265915 L27.6638028,20.1265915 L27.6638028,23.4434014 L35.5707254,23.4434014 C35.5707254,23.4434014 37.0085282,21.8937254 33.4497676,17.8772113 C33.4497676,17.8772113 31.584331,15.9591479 31.2447394,14.2966056 L32.2456408,14.3038873"          fill="#FFFFFF"></path>    <path d="M41.4225563,14.3038873 C43.6206338,14.3038873 43.8003592,16.5380423 43.8003592,16.5380423 L44.8532254,16.5380423 L44.8532254,13.2285141 L37.0148169,13.2285141 C37.0148169,13.2285141 35.7732887,14.852993 39.0166197,18.5011197 C39.0166197,18.5011197 41.3173028,21.1860775 41.3788662,22.3600845 L40.0542606,22.3600845 C38.1431479,22.3600845 37.9399225,20.1265915 37.9399225,20.1265915 L36.8420423,20.1265915 L36.8420423,23.4434014 L44.7479718,23.4434014 C44.7479718,23.4434014 46.1844507,21.8937254 42.6270141,17.8772113 C42.6270141,17.8772113 40.7615775,15.9591479 40.4233099,14.2966056 L41.4225563,14.3038873"          fill="#FFFFFF"></path></svg>