<?xml version="1.0" encoding="UTF-8"?>
<svg width="170px" height="60px" viewBox="0 0 170 60" version="1.1" xmlns="http://www.w3.org/2000/svg" xmlns:xlink="http://www.w3.org/1999/xlink">
    <!-- Generator: Sketch 50.2 (55047) - http://www.bohemiancoding.com/sketch -->
    <title>Logo Apeer white</title>
    <desc>Created with Sketch.</desc>
    <defs></defs>
    <g id="Library-" stroke="none" stroke-width="1" fill="none" fill-rule="evenodd">
        <g id="Logo-" transform="translate(-235.000000, -1473.000000)">
            <g id="Logo-Apeer-white" transform="translate(235.000000, 1473.000000)">
                <rect id="Rectangle-14-Copy" stroke="#FFFFFF" stroke-width="3" x="1.5" y="1.5" width="167" height="57"></rect>
                <path d="M36.818,41.011 L32,41.011 L40.382,19 L46.784,19 L55.199,41.011 L50.117,41.011 L48.17,35.5 L38.798,35.5 L36.818,41.011 Z M43.517,22.102 L39.788,32.167 L47.147,32.167 L43.517,22.102 Z M63.884,22.267 L63.884,29.593 L65.6,29.593 C68.24,29.593 70.814,29.098 70.814,25.798 C70.814,23.191 68.966,22.267 65.897,22.267 L63.884,22.267 Z M63.917,41.011 L59.132,41.011 L59.132,19 L66.92,19 C71.573,19 75.731,20.782 75.731,25.765 C75.731,30.88 71.573,32.893 66.953,32.893 L63.917,32.893 L63.917,41.011 Z M95.273,41.011 L80.621,41.011 L80.621,19 L94.976,19 L94.976,22.366 L85.406,22.366 L85.406,28.141 L94.547,28.141 L94.547,31.474 L85.406,31.474 L85.406,37.645 L95.273,37.645 L95.273,41.011 Z M115.277,41.011 L100.625,41.011 L100.625,19 L114.98,19 L114.98,22.366 L105.41,22.366 L105.41,28.141 L114.551,28.141 L114.551,31.474 L105.41,31.474 L105.41,37.645 L115.277,37.645 L115.277,41.011 Z M125.381,22.267 L125.381,28.636 L127.592,28.636 C129.836,28.636 132.179,27.877 132.179,25.27 C132.179,22.729 130.1,22.267 127.724,22.267 L125.381,22.267 Z M125.414,41.011 L120.629,41.011 L120.629,19 L129.341,19 C133.136,19 137.096,20.386 137.096,24.775 C137.096,28.009 134.819,29.659 132.014,30.187 C133.895,30.616 134.687,31.639 135.611,33.916 L138.416,41.011 L133.136,41.011 L131.156,35.5 C130.166,32.827 129.605,31.903 127.196,31.903 L125.414,31.903 L125.414,41.011 Z" id="APEER" fill="#FFFFFF"></path>
            </g>
        </g>
    </g>
</svg>