<?xml version="1.0" encoding="UTF-8"?>
<svg width="112px" height="40px" viewBox="0 0 112 40" version="1.1" xmlns="http://www.w3.org/2000/svg" xmlns:xlink="http://www.w3.org/1999/xlink">
    <!-- Generator: Sketch 50.2 (55047) - http://www.bohemiancoding.com/sketch -->
    <title>Logo Apeer Header</title>
    <desc>Created with Sketch.</desc>
    <defs></defs>
    <g id="Library-" stroke="none" stroke-width="1" fill="none" fill-rule="evenodd">
        <g id="Logo-" transform="translate(-596.000000, -1483.000000)">
            <g id="Logo-Apeer-Header" transform="translate(596.000000, 1483.000000)">
                <rect id="Rectangle-14" stroke="#000000" stroke-width="1.5" x="0.75" y="0.75" width="110.5" height="38.5"></rect>
                <path d="M24.212,27.674 L21,27.674 L26.588,13 L30.856,13 L36.466,27.674 L33.078,27.674 L31.78,24 L25.532,24 L24.212,27.674 Z M28.678,15.068 L26.192,21.778 L31.098,21.778 L28.678,15.068 Z M42.2559999,15.178 L42.2559999,20.062 L43.3999999,20.062 C45.1599999,20.062 46.8759999,19.732 46.8759999,17.532 C46.8759999,15.794 45.6439999,15.178 43.5979999,15.178 L42.2559999,15.178 Z M42.2779999,27.674 L39.0879999,27.674 L39.0879999,13 L44.2799999,13 C47.3819999,13 50.1539999,14.188 50.1539999,17.51 C50.1539999,20.92 47.3819999,22.262 44.3019999,22.262 L42.2779999,22.262 L42.2779999,27.674 Z M63.1819999,27.674 L53.4139999,27.674 L53.4139999,13 L62.9839999,13 L62.9839999,15.244 L56.6039999,15.244 L56.6039999,19.094 L62.6979999,19.094 L62.6979999,21.316 L56.6039999,21.316 L56.6039999,25.43 L63.1819999,25.43 L63.1819999,27.674 Z M76.5179998,27.674 L66.7499998,27.674 L66.7499998,13 L76.3199998,13 L76.3199998,15.244 L69.9399998,15.244 L69.9399998,19.094 L76.0339998,19.094 L76.0339998,21.316 L69.9399998,21.316 L69.9399998,25.43 L76.5179998,25.43 L76.5179998,27.674 Z M83.2539998,15.178 L83.2539998,19.424 L84.7279998,19.424 C86.2239998,19.424 87.7859998,18.918 87.7859998,17.18 C87.7859998,15.486 86.3999998,15.178 84.8159998,15.178 L83.2539998,15.178 Z M83.2759998,27.674 L80.0859998,27.674 L80.0859998,13 L85.8939998,13 C88.4239998,13 91.0639998,13.924 91.0639998,16.85 C91.0639998,19.006 89.5459998,20.106 87.6759998,20.458 C88.9299998,20.744 89.4579998,21.426 90.0739998,22.944 L91.9439998,27.674 L88.4239998,27.674 L87.1039998,24 C86.4439998,22.218 86.0699998,21.602 84.4639998,21.602 L83.2759998,21.602 L83.2759998,27.674 Z" id="APEER" fill="#000000"></path>
            </g>
        </g>
    </g>
</svg>