<?xml version="1.0" standalone="no"?><!DOCTYPE svg PUBLIC "-//W3C//DTD SVG 1.1//EN" "http://www.w3.org/Graphics/SVG/1.1/DTD/svg11.dtd"><svg t="1539501912763" class="icon" style="" viewBox="0 0 1024 1024" version="1.1" xmlns="http://www.w3.org/2000/svg" p-id="5236" xmlns:xlink="http://www.w3.org/1999/xlink" width="200" height="200"><defs><style type="text/css"></style></defs><path d="M872 872H152c-49.7 0-90-40.3-90-90V242c0-49.7 40.3-90 90-90h585c49.7 0 90 40.3 90 90v45h45c49.7 0 90 40.3 90 90v405c0 49.7-40.3 90-90 90z m-90-90V242c0-24.9-20.1-45-45-45H152c-24.9 0-45 20.1-45 45v540c0 24.9 20.1 45 45 45h642.5c-7.8-13.3-12.5-28.5-12.5-45z m135-405c0-24.9-20.1-45-45-45h-45v450c0 24.9 20.1 45 45 45s45-20.1 45-45V377z" fill="#E48A8B" p-id="5237"></path><path d="M248.9 353.3h-45v180h180v-180h-135z m90 135h-90v-90h90v90zM203.9 623.3h495v45h-495zM428.9 488.3h270v45h-270zM428.9 353.3h270v45h-270z" fill="#D12423" p-id="5238"></path></svg>