<?xml version="1.0" encoding="UTF-8"?>
<svg width="43px" height="40px" viewBox="0 0 43 40" version="1.1" xmlns="http://www.w3.org/2000/svg" xmlns:xlink="http://www.w3.org/1999/xlink">
    <!-- Generator: Sketch 50.2 (55047) - http://www.bohemiancoding.com/sketch -->
    <title>python-logo</title>
    <desc>Created with Sketch.</desc>
    <defs></defs>
    <g id="Page-1" stroke="none" stroke-width="1" fill="none" fill-rule="evenodd">
        <g id="1.1-My-Workspace-Emtpy_newModule_Inactive" transform="translate(-696.000000, -863.000000)" fill="#008BD0" fill-rule="nonzero">
            <g id="01" transform="translate(183.000000, 792.000000)">
                <g id="python-logo" transform="translate(513.000000, 71.000000)">
                    <path d="M27.8967875,18.6407832 C31.0943183,17.1914005 31.5708616,6.15930173 29.6844418,2.90991902 C27.2202443,-1.33205629 15.506664,-0.480204441 11.8078986,2.55189432 C11.3832072,4.05806716 11.4276517,6.7914005 11.4474048,8.96424 L23.0572813,8.96424 L23.0572813,9.98152395 L11.4498739,9.98152395 C11.4498739,9.99633877 6.28197266,10.0136227 6.28197266,10.0136227 C-2.62913845,10.0136227 -2.44395326,29.3667091 9.31407143,29.3667091 C9.31407143,29.3667091 9.74617019,25.0802894 10.5017257,22.9321412 C12.8350591,16.3025116 22.6375282,21.0259684 27.8967875,18.6407832 Z M15.7412319,7.39386963 C14.4029603,7.39386963 13.3190097,6.30991902 13.3190097,4.96917828 C13.3190097,3.63090667 14.4029603,2.54448692 15.7412319,2.54448692 C17.0819727,2.54448692 18.1659233,3.63090667 18.1659233,4.96917828 C18.1683924,6.30744988 17.0819727,7.39386963 15.7412319,7.39386963 Z" id="Shape"></path>
                    <path d="M32.4661104,10.3703704 C32.4661104,10.3703704 32.1574684,14.6592593 31.4019129,16.8049383 C29.0685796,23.4320988 19.2685796,18.7111111 14.0068512,21.0962963 C10.8117894,22.545679 10.330308,33.5777778 12.2191968,36.8271605 C14.6809252,41.0716049 26.3945055,40.2197531 30.0957401,37.1851852 C30.5204314,35.6814815 30.475987,32.9481481 30.4562339,30.7753086 L18.8438882,30.7753086 L18.8438882,29.7580247 L30.4512956,29.7580247 C30.4512956,29.7432099 36.1722833,29.7259259 36.1722833,29.7259259 C44.3846289,29.7259259 45.1204314,10.3703704 32.4661104,10.3703704 Z M25.7451228,31.9234568 C27.0833944,31.9234568 28.1698141,33.0074074 28.1698141,34.3481481 C28.1698141,35.6864198 27.0833944,36.7703704 25.7451228,36.7703704 C24.4068512,36.7703704 23.3229005,35.6864198 23.3229005,34.3481481 C23.3229005,33.0074074 24.4068512,31.9234568 25.7451228,31.9234568 Z" id="Shape"></path>
                </g>
            </g>
        </g>
    </g>
</svg>