<svg width="32px" height="36px" viewBox="0 0 16 16" version="1.1" xmlns="http://www.w3.org/2000/svg">
    <path d="M2.06815745,3.47773504 C2.45585838,2.03111822 3.38367147,0.821585508 4.68079296,0.0728752274 C5.53290511,-0.419012623 6.50064343,-0.679311688 7.47970885,-0.679311688 C9.47922287,-0.679311688 11.3419145,0.395305134 12.3407182,2.12532383 C13.0894285,3.42244532 13.2882696,4.93343598 12.9005687,6.3800528 C12.5720827,7.60797803 11.8527556,8.66330513 10.8499145,9.41280046 L13.7666995,14.4643519 L12.6013537,15.1372491 L9.68468081,10.0861463 C8.9911481,10.3823332 8.24378362,10.537436 7.48890511,10.537436 C5.48950324,10.537436 3.62681165,9.46281915 2.62800792,7.73280046 C1.87929764,6.43567897 1.68045651,4.92423971 2.06815745,3.47773504 Z M7.47970885,0.666482704 C6.7367182,0.666482704 6.00169016,0.864090181 5.35369016,1.23822102 C4.36755932,1.80726775 3.66269951,2.72633317 3.36785838,3.82595934 C3.07346586,4.92558551 3.22464343,6.07422102 3.79369016,7.05990326 C4.5529425,8.37463224 5.96883035,9.19164158 7.48890511,9.19164158 C8.23234436,9.19164158 8.96748455,8.99358551 9.6153724,8.61945467 C10.6010546,8.05040794 11.3064752,7.13134252 11.6008677,6.03216495 C11.8955967,4.93253878 11.7445313,3.78390326 11.175036,2.79822102 C10.4162322,1.48304345 8.99989577,0.666482704 7.47970885,0.666482704 Z"
          fill="#818181"
          transform="translate(7.820656, 7.228969) rotate(-10.000000) translate(-7.820656, -7.228969) "></path>
</svg>