<svg viewBox="0 0 1024 1024" version="1.1" xmlns="http://www.w3.org/2000/svg" width="30" height="30">
    <path d="M527.180351 173.900351c-8.353684-9.521404-21.917193-9.521404-30.270877 0L260.581053 443.912982c-8.353684 9.521404-4.760702 17.33614 7.814736 17.336141h106.352281c12.665263 0 22.995088 10.329825 22.995088 22.995088v177.134035c0 12.665263 10.329825 22.995088 22.995088 22.995087h182.523508c12.665263 0 22.995088-10.329825 22.995088-22.995087V484.244211c0-12.665263 10.329825-22.995088 22.995088-22.995088h106.352281c12.665263 0 16.168421-7.814737 7.814736-17.336141l-236.238596-270.012631M245.400702 756.741053h533.198596V832.912281H245.400702z"></path>
</svg>
