<svg width="100%" height="100%" viewBox="200 -100 400 400" preserveAspectRatio="xMidYMid meet" xmlns="http://www.w3.org/2000/svg">
    <path fill="red" stroke="red" d="M 308.1 185.6 L 328.4 188.1 340.1 187.1 348.7 189 351.1 192 357.3 192.9 362.8 195.9 367.5 196.8 373 195.9 373 198.3 377.6 199.3 383.9 195.4 398.7 189.5 416.7 189.5 425.3 186.1 430.8 179.8 439.4 175.9 439.4 174.4 434.7 168 437.8 161.2 439.4 160.2 454.2 164.1 458.9 161.7 462 156.8 472.2 156.3 476.8 153.4 477.6 150.5 480 147 487 146.1 487.8 143.6 490.9 144.1 495.6 141.7 499.5 142.2 501.1 141.7 502.6 142.7 508.1 143.1 510.4 142.2 508.1 136.8 497.2 128 491.7 127.5 487 131.4 482.3 129 476.8 129.5 474.5 131.4 471.4 129 470.6 126 473.7 125.1 473.7 121.7 481.5 107.5 490.9 110.9 497.9 106.5 504.2 104.6 505 102.1 503.4 101.6 506.5 97.3 506.5 95.8 508.1 93.8 512 87 516.7 84.1 517.5 82.1 517.5 80.6 515.9 79.7 516.7 77.7 514.3 76.3 511.2 76.7 511.2 75.3 518.3 69.4 523.7 68.4 526.8 71.9 521.4 77.2 525.3 78.7 526.1 80.2 528.4 80.2 530 77.7 534.7 80.6 533.9 82.6 537 90.9 540.1 91.9 543.2 90.4 549.5 91.4 551.1 90.4 554.2 90.4 555.7 87.5 558.1 87.5 564.3 94.3 562 97.3 562 99.7 558.1 104.1 556.5 107.5 557.3 114.8 553.4 115.3 550.3 126.5 548.7 122.2 532.3 134.8 537.8 142.2 540.9 140.2 540.9 139.2 541.7 139.2 542.5 140.7 542.5 140.2 542.5 142.7 537.8 143.6 539.3 147.5 535.4 150 534.7 153.4 532.3 151.4 530.7 152.4 526.8 150 526.1 152.9 527.6 153.4 530.7 158.3 529.2 162.7 531.5 169.5 538.6 167.1 541.7 175.4 540.1 177.8 543.2 179.3 542.5 183.2 540.1 183.7 538.6 185.6 535.4 186.6 531.5 185.1 531.5 187.1 528.4 186.6 526.1 189.5 523.7 189 515.1 193.4 512 197.8 509.7 192.5 506.5 190.5 505 191.5 504.2 197.8 505.7 198.8 504.2 202.2 496.4 202.2 494 197.3 495.6 196.8 495.6 193.4 494 193.9 492.5 192 493.3 190 490.9 187.6 488.6 188.1 487 189.5 483.1 190 482.3 194.4 477.6 194.4 475.3 196.8 474.5 195.4 468.3 199.3 465.9 198.8 465.1 193.4 462 192.9 458.9 196.8 459.7 199.3 456.5 200.8 457.3 203.2 456.5 204.2 458.1 208.6 458.1 211 455.8 211 453.4 213 450.3 212.5 446.4 214.9 442.5 213.9 439.4 221.3 434.7 220.8 433.9 223.2 431.5 223.7 431.5 221.3 427.6 224.7 422.9 222.7 423.7 224.7 420.6 225.2 421.4 226.1 412.8 235.4 413.6 238.8 412 239.3 411.2 238.8 410.5 242.2 405.8 243.2 401.1 240.3 398 237.9 393.3 236.9 390.9 235.4 394.8 228.1 393.3 223.7 389.4 224.7 385.5 231 384.7 241.3 371.4 245.2 363.6 240.8 362.8 238.8 364.4 237.4 363.6 234.9 370.6 228.1 369.1 223.2 362.8 224.2 359.7 226.6 355 225.2 349.5 226.6 351.1 229.1 348.7 231.5 344.8 230.5 344.1 227.6 341.7 228.6 340.1 223.2 337.8 223.2 333.1 219.3 328.4 218.3 333.9 213.9 334.7 209.5 332.3 205.6 326.1 207.1 324.5 209.1 323.7 208.1 322.2 210 319.8 208.6 320.6 209.5 318.3 210.5 318.3 206.6 310.5 200.3 313.6 198.8 313.6 197.3 308.1 185.6">
    </path>
</svg>
