<svg viewBox="-200 -200 1400 1400" version="1.1" xmlns="http://www.w3.org/2000/svg" width="30" height="30">
    <path d="M509.791 7.273c-274.546 0-497.152 222.604-497.152 497.153 0 274.55 222.606 497.153 497.152 497.153 274.629 0 497.154-222.603 497.154-497.153 0.001-274.549-222.522-497.153-497.154-497.153v0zM787.74 723.711c16.101 16.18 16.101 42.397 0 58.622-8.174 8.053-18.769 12.141-29.373 12.141s-21.118-4.086-29.291-12.141l-219.244-219.255-219.245 219.254c-8.172 8.053-18.773 12.141-29.373 12.141-10.604 0-21.117-4.086-29.298-12.141-16.101-16.222-16.101-42.442 0-58.622l219.269-219.284-219.262-219.285c-16.108-16.181-16.108-42.399 0-58.622 16.181-16.147 42.397-16.147 58.662 0l219.245 219.262 219.245-219.262c16.18-16.147 42.398-16.147 58.663 0 16.107 16.222 16.107 42.441 0 58.622l-219.27 219.285 219.269 219.285z"></path>
</svg>
