<?xml version="1.0" standalone="no"?><!DOCTYPE svg PUBLIC "-//W3C//DTD SVG 1.1//EN" "http://www.w3.org/Graphics/SVG/1.1/DTD/svg11.dtd"><svg t="1539501979186" class="icon" style="" viewBox="0 0 1024 1024" version="1.1" xmlns="http://www.w3.org/2000/svg" p-id="7226" xmlns:xlink="http://www.w3.org/1999/xlink" width="200" height="200"><defs><style type="text/css"></style></defs><path d="M824.533333 509.866667c0 164.266667-133.333333 297.6-297.6 297.6S229.333333 675.2 229.333333 509.866667 362.666667 212.266667 526.933333 212.266667s297.6 133.333333 297.6 297.6" fill="#E9EAEB" p-id="7227"></path><path d="M965.333333 606.933333l-21.333333-4.266666c7.466667-30.933333 10.666667-62.933333 10.666667-94.933334 0-114.133333-44.8-220.8-124.8-300.8-80-81.066667-186.666667-125.866667-300.8-125.866666-126.933333 0-246.4 56.533333-327.466667 153.6l-16-13.866667c85.333333-102.4 211.2-161.066667 344.533333-161.066667 119.466667 0 231.466667 46.933333 316.8 131.2s131.2 197.333333 131.2 316.8c-2.133333 33.066667-5.333333 66.133333-12.8 99.2zM89.6 590.933333c-5.333333-27.733333-7.466667-55.466667-7.466667-83.2 0-30.933333 3.2-62.933333 9.6-92.8l21.333334 4.266667c-6.4 28.8-9.6 58.666667-9.6 88.533333 0 26.666667 2.133333 53.333333 7.466666 78.933334l-21.333333 4.266666zM221.866667 832c-21.333333-19.2-39.466667-41.6-56.533334-65.066667l17.066667-12.8c16 22.4 34.133333 42.666667 54.4 61.866667L221.866667 832zM814.933333 851.2l-13.866666-16c22.4-19.2 42.666667-39.466667 60.8-62.933333l17.066666 12.8c-18.133333 24.533333-39.466667 45.866667-64 66.133333z" fill="#BCC0C4" p-id="7228"></path><path d="M134.4 672h328.533333v21.333333H134.4zM730.666667 520.533333H545.066667c-19.2 0-45.866667-10.666667-57.6-27.733333l-101.333334-157.866667c-6.4-9.6-23.466667-18.133333-38.4-18.133333H119.466667v-21.333333h229.333333c19.2 0 43.733333 9.6 55.466667 27.733333l101.333333 157.866667c7.466667 10.666667 26.666667 18.133333 39.466667 18.133333h185.6v21.333333zM500.266667 897.066667H307.2v-21.333334h193.066667c13.866667 0 33.066667-7.466667 40.533333-18.133333l101.333333-150.4c12.8-20.266667 41.6-20.266667 55.466667-20.266667h220.8v21.333334H697.6c-14.933333 0-32 1.066667-38.4 10.666666l-101.333333 150.4c-11.733333 18.133333-38.4 27.733333-57.6 27.733334zM573.866667 327.466667h156.8v21.333333H573.866667zM761.6 327.466667h30.933333v21.333333h-30.933333zM824.533333 327.466667h30.933334v21.333333h-30.933334zM417.066667 938.666667H448v21.333333h-30.933333zM480 938.666667h30.933333v21.333333H480zM541.866667 938.666667h30.933333v21.333333h-30.933333zM229.333333 609.066667h30.933334v21.333333h-30.933334zM291.2 609.066667h30.933333v21.333333h-30.933333zM354.133333 609.066667h30.933334v21.333333h-30.933334zM651.733333 625.066667H682.666667v21.333333h-30.933334zM714.666667 625.066667h30.933333v21.333333H714.666667zM777.6 625.066667h30.933333v21.333333h-30.933333zM260.266667 233.6h30.933333v21.333333h-30.933333zM323.2 233.6h30.933333v21.333333h-30.933333zM385.066667 233.6H416v21.333333h-30.933333z" fill="#2A5082" p-id="7229"></path><path d="M370.133333 886.4c0 34.133333-27.733333 62.933333-62.933333 62.933333s-62.933333-27.733333-62.933333-62.933333 27.733333-62.933333 62.933333-62.933333 62.933333 28.8 62.933333 62.933333" fill="#A3D4FF" p-id="7230"></path><path d="M307.2 960c-40.533333 0-73.6-33.066667-73.6-73.6s33.066667-73.6 73.6-73.6 73.6 33.066667 73.6 73.6-33.066667 73.6-73.6 73.6z m0-125.866667c-28.8 0-52.266667 23.466667-52.266667 52.266667s23.466667 52.266667 52.266667 52.266667 52.266667-23.466667 52.266667-52.266667-23.466667-52.266667-52.266667-52.266667z" fill="#2A5082" p-id="7231"></path><path d="M777.6 886.4c0 34.133333-27.733333 62.933333-62.933333 62.933333-34.133333 0-62.933333-27.733333-62.933334-62.933333s27.733333-62.933333 62.933334-62.933333c34.133333 0 62.933333 28.8 62.933333 62.933333" fill="#A3D4FF" p-id="7232"></path><path d="M714.666667 960c-40.533333 0-73.6-33.066667-73.6-73.6s33.066667-73.6 73.6-73.6 73.6 33.066667 73.6 73.6S755.2 960 714.666667 960z m0-125.866667c-28.8 0-52.266667 23.466667-52.266667 52.266667S685.866667 938.666667 714.666667 938.666667s52.266667-23.466667 52.266666-52.266667-23.466667-52.266667-52.266666-52.266667z" fill="#2A5082" p-id="7233"></path><path d="M981.333333 698.666667c0 34.133333-27.733333 62.933333-62.933333 62.933333s-62.933333-27.733333-62.933333-62.933333 27.733333-62.933333 62.933333-62.933334 62.933333 27.733333 62.933333 62.933334" fill="#A3D4FF" p-id="7234"></path><path d="M918.4 771.2c-40.533333 0-73.6-33.066667-73.6-73.6s33.066667-73.6 73.6-73.6 73.6 33.066667 73.6 73.6-33.066667 73.6-73.6 73.6z m0-124.8c-28.8 0-52.266667 23.466667-52.266667 52.266667s23.466667 52.266667 52.266667 52.266666 52.266667-23.466667 52.266667-52.266666-23.466667-52.266667-52.266667-52.266667z" fill="#2A5082" p-id="7235"></path><path d="M541.866667 682.666667c0 34.133333-27.733333 62.933333-62.933334 62.933333S416 717.866667 416 682.666667c0-34.133333 27.733333-62.933333 62.933333-62.933334s62.933333 28.8 62.933334 62.933334" fill="#A3D4FF" p-id="7236"></path><path d="M480 756.266667c-40.533333 0-73.6-33.066667-73.6-73.6s33.066667-73.6 73.6-73.6c40.533333 0 73.6 33.066667 73.6 73.6s-34.133333 73.6-73.6 73.6z m0-125.866667c-28.8 0-52.266667 23.466667-52.266667 52.266667s23.466667 52.266667 52.266667 52.266666 52.266667-23.466667 52.266667-52.266666-24.533333-52.266667-52.266667-52.266667z" fill="#2A5082" p-id="7237"></path><path d="M385.066667 494.933333c0 34.133333-27.733333 62.933333-62.933334 62.933334s-62.933333-27.733333-62.933333-62.933334 27.733333-62.933333 62.933333-62.933333 62.933333 27.733333 62.933334 62.933333" fill="#A3D4FF" p-id="7238"></path><path d="M323.2 567.466667c-40.533333 0-73.6-33.066667-73.6-73.6 0-40.533333 33.066667-73.6 73.6-73.6s73.6 33.066667 73.6 73.6c-1.066667 41.6-33.066667 73.6-73.6 73.6z m0-124.8c-28.8 0-52.266667 23.466667-52.266667 52.266666s23.466667 52.266667 52.266667 52.266667 52.266667-23.466667 52.266667-52.266667-23.466667-52.266667-52.266667-52.266666z" fill="#2A5082" p-id="7239"></path><path d="M792.533333 509.866667c0 34.133333-27.733333 62.933333-62.933333 62.933333-34.133333 0-62.933333-27.733333-62.933333-62.933333s27.733333-62.933333 62.933333-62.933334c35.2 1.066667 62.933333 28.8 62.933333 62.933334" fill="#A3D4FF" p-id="7240"></path><path d="M730.666667 583.466667c-40.533333 0-73.6-33.066667-73.6-73.6 0-40.533333 33.066667-73.6 73.6-73.6s73.6 33.066667 73.6 73.6c-1.066667 40.533333-34.133333 73.6-73.6 73.6z m0-124.8c-28.8 0-52.266667 23.466667-52.266667 52.266666s23.466667 52.266667 52.266667 52.266667 52.266667-23.466667 52.266666-52.266667-24.533333-52.266667-52.266666-52.266666z" fill="#2A5082" p-id="7241"></path><path d="M620.8 338.133333c0 34.133333-27.733333 62.933333-62.933333 62.933334s-62.933333-27.733333-62.933334-62.933334 27.733333-62.933333 62.933334-62.933333 62.933333 27.733333 62.933333 62.933333" fill="#A3D4FF" p-id="7242"></path><path d="M557.866667 411.733333c-40.533333 0-73.6-33.066667-73.6-73.6s33.066667-73.6 73.6-73.6c40.533333 0 73.6 33.066667 73.6 73.6s-33.066667 73.6-73.6 73.6z m0-125.866666c-28.8 0-52.266667 23.466667-52.266667 52.266666s23.466667 52.266667 52.266667 52.266667 52.266667-23.466667 52.266666-52.266667-23.466667-52.266667-52.266666-52.266666z" fill="#2A5082" p-id="7243"></path><path d="M181.333333 306.133333c0 34.133333-27.733333 62.933333-62.933333 62.933334S56.533333 341.333333 56.533333 306.133333s27.733333-62.933333 62.933334-62.933333 61.866667 28.8 61.866666 62.933333" fill="#A3D4FF" p-id="7244"></path><path d="M119.466667 379.733333c-40.533333 0-73.6-33.066667-73.6-73.6s33.066667-73.6 73.6-73.6S192 266.666667 192 306.133333s-32 73.6-72.533333 73.6z m0-124.8c-28.8 0-52.266667 23.466667-52.266667 52.266667s23.466667 52.266667 52.266667 52.266667 52.266667-23.466667 52.266666-52.266667-23.466667-52.266667-52.266666-52.266667z" fill="#2A5082" p-id="7245"></path><path d="M181.333333 682.666667c0 34.133333-27.733333 62.933333-62.933333 62.933333S56.533333 716.8 56.533333 682.666667s27.733333-62.933333 62.933334-62.933334S181.333333 648.533333 181.333333 682.666667" fill="#A3D4FF" p-id="7246"></path><path d="M119.466667 756.266667c-40.533333 0-73.6-33.066667-73.6-73.6s33.066667-73.6 73.6-73.6S192 642.133333 192 682.666667s-32 73.6-72.533333 73.6z m0-125.866667c-28.8 0-52.266667 23.466667-52.266667 52.266667s23.466667 52.266667 52.266667 52.266666S170.666667 711.466667 170.666667 682.666667s-22.4-52.266667-51.2-52.266667z" fill="#2A5082" p-id="7247"></path></svg>