<svg version="1.1" xmlns="http://www.w3.org/2000/svg" x="0px" y="0px" viewBox="0 0 1000 1000">
    <g fill="#008bd0">
        <path d="M625,537.9H79.6c-16.2,0-29.3-13.1-29.3-29.3v-14.7c0-16.2,13.1-29.3,29.3-29.3h550.2L519.9,354.6c-11.5-11.5-11.5-30,0-41.5l10.4-10.4c11.4-11.4,30-11.5,41.5,0l174,174c6,6,8.9,14,8.6,21.9c0.4,8-2.5,16-8.6,22.2l-174,174c-11.5,11.5-30,11.5-41.5,0l-10.4-10.4c-11.4-11.4-11.5-30,0-41.5L625,537.9z"/>
        <path d="M876.4,914.2H324V619.7c0-16.2-13.1-29.3-29.3-29.3H280c-16.2,0-29.3,13.1-29.3,29.3v341c0,16.2,13.1,29.3,29.3,29.3h14.7c4.2,0,8.1-0.9,11.7-2.4h613.8c8.1,0,15.5-3.3,20.8-8.6c5.3-5.3,8.6-12.6,8.6-20.7V39.3c0-8.1-3.3-15.4-8.6-20.7c-5.3-5.3-12.7-8.6-20.8-8.6H280.1c-8.1,0-15.5,3.3-20.8,8.6c-5.3,5.3-8.6,12.6-8.6,20.7v332.4c0,16.2,13.1,29.3,29.3,29.3h14.7c16.2,0,29.3-13.1,29.3-29.3V83.3h552.3V914.2z"/>
    </g>
</svg>
