<svg viewBox="0 0 1024 1024" version="1.1" xmlns="http://www.w3.org/2000/svg" width="30" height="30">
    <path d="M800.406 566.808v-411.33h-30.418c-33.462 0-60.838-27.376-60.838-60.837V64.223H252.874c-33.46 0-60.837 27.375-60.837 60.837v638.787c0 33.458 27.376 60.837 60.837 60.837h306.5c-0.249-4.522-0.686-8.995-0.686-13.58 0-134.081 107.986-242.823 241.718-244.296z m-473.54-288.443h329.936c9.85 0 17.835 13.096 17.835 29.248s-7.985 29.248-17.835 29.248H326.866c-9.85 0-17.835-13.096-17.835-29.248s7.985-29.248 17.835-29.248z m0 106.024h329.936c9.85 0 17.835 13.096 17.835 29.248s-7.985 29.248-17.835 29.248H326.866c-9.85 0-17.835-13.096-17.835-29.248s7.985-29.248 17.835-29.248z m-17.835 127.963c0-16.152 7.985-29.248 17.835-29.248h329.936c9.85 0 17.835 13.096 17.835 29.248s-7.985 29.248-17.835 29.248H326.866c-9.85-0.001-17.835-13.096-17.835-29.248z"></path>
    <path d="M796.332 620.243c-101.659 0-184.071 82.411-184.071 184.071 0 101.659 82.412 184.071 184.071 184.071s184.071-82.412 184.071-184.071c0-101.66-82.412-184.071-184.071-184.071z m123.829 214.192H679.196c-14.786 0-26.774-11.988-26.774-26.774s11.988-26.774 26.774-26.774h240.966c14.786 0 26.774 11.988 26.774 26.774s-11.989 26.774-26.775 26.774z"></path>
</svg>
