<svg viewBox="0 0 1024 1024" version="1.1" xmlns="http://www.w3.org/2000/svg" width="30" height="30">
    <path d="M1024 736a48 48 0 0 0-81.936-33.936L880 764.112l-62.064-62.064a48 48 0 0 0-67.872 67.888L812.112 832l-62.064 62.064a48 48 0 0 0 67.888 67.872L880 899.888l62.064 62.064a48 48 0 0 0 67.872-67.888L947.888 832l62.064-62.064A47.872 47.872 0 0 0 1024 736zM0 816a48 48 0 0 0 48 48h664.912c1.12-1.248 2.032-2.688 3.2-3.888L744.256 832l-28.128-28.128a96 96 0 1 1 135.76-135.76L880 696.256l28.112-28.128A95.712 95.712 0 0 1 976 640c17.568 0 33.808 5.056 48 13.312V304H0v512z m976-656H383.712L288 64H48a48 48 0 0 0-48 48v144h1024v-48a48 48 0 0 0-48-48z"></path>
</svg>
