<?xml version="1.0" encoding="UTF-8"?>
<svg width="39px" height="32px" viewBox="0 0 39 32" version="1.1" xmlns="http://www.w3.org/2000/svg" xmlns:xlink="http://www.w3.org/1999/xlink">
    <!-- Generator: Sketch 50.2 (55047) - http://www.bohemiancoding.com/sketch -->
    <title>Category Icon/O Selector</title>
    <desc>Created with Sketch.</desc>
    <defs></defs>
    <g id="Symbols" stroke="none" stroke-width="1" fill="none" fill-rule="evenodd">
        <g id="Runner-Overlay---Define-Workflow-Input-Test-Files" transform="translate(-505.000000, -374.000000)" fill="#FFFFFF">
            <g id="Group-3" transform="translate(476.000000, 349.000000)">
                <g id="Category-Icon/O-Select-Connector" transform="translate(28.000000, 20.000000)">
                    <g id="Group-7" stroke-width="1" fill-rule="evenodd" transform="translate(2.240000, 5.760000)">
                        <path d="M1.92,1.28 C1.56653776,1.28 1.28,1.56653776 1.28,1.92 L1.28,26.88 C1.28,27.2334622 1.56653776,27.52 1.92,27.52 L22.08,27.52 C22.4334622,27.52 22.72,27.2334622 22.72,26.88 L22.72,1.92 C22.72,1.56653776 22.4334622,1.28 22.08,1.28 L1.92,1.28 Z M1.92,0 L22.08,0 C23.1403867,-2.84217094e-16 24,0.85961328 24,1.92 L24,26.88 C24,27.9403867 23.1403867,28.8 22.08,28.8 L1.92,28.8 C0.85961328,28.8 1.42108547e-16,27.9403867 0,26.88 L0,1.92 C-1.42108547e-16,0.85961328 0.85961328,1.42108547e-16 1.92,0 Z" id="Rectangle-6" fill-rule="nonzero"></path>
                        <polygon id="Line" fill-rule="nonzero" points="0.48 23.2 0.48 21.92 23.52 21.92 23.52 23.2"></polygon>
                        <path d="M2.71123659,22.8363144 C2.47206727,23.0965712 2.06720242,23.1136659 1.80694564,22.8744966 C1.54668886,22.6353273 1.52959409,22.2304624 1.76876341,21.9702057 L8.32102975,14.8402286 C8.79936839,14.3197151 9.60909808,14.2855255 10.1296116,14.7638642 C10.1798485,14.8100305 10.2263137,14.8601397 10.2685631,14.9137126 L15.8625301,22.0069477 C16.0814074,22.2844874 16.0338521,22.6869128 15.7563124,22.9057901 C15.4787727,23.1246674 15.0763472,23.0771121 14.8574699,22.7995724 L9.26350293,15.7063373 L2.71123659,22.8363144 Z" id="Path-11" fill-rule="nonzero"></path>
                        <path d="M14.8750782,21.2684528 C14.6382384,21.5308312 14.2335421,21.5515344 13.9711636,21.3146946 C13.7087851,21.0778548 13.688082,20.6731584 13.9249218,20.4107799 L16.6585948,17.3823324 C17.1322745,16.8575754 17.9416672,16.8161691 18.4664241,17.2898487 C18.5330597,17.3499983 18.5931829,17.4169908 18.6458012,17.4897203 L21.919768,22.0150235 C22.1269535,22.301397 22.062759,22.7015055 21.7763856,22.908691 C21.4900121,23.1158764 21.0899036,23.0516819 20.8827181,22.7653085 L17.6087513,18.2400052 L14.8750782,21.2684528 Z" id="Path-11" fill-rule="nonzero"></path>
                        <path d="M16.16,10.88 C14.6577855,10.88 13.44,9.66221452 13.44,8.16 C13.44,6.65778548 14.6577855,5.44 16.16,5.44 C17.6622145,5.44 18.88,6.65778548 18.88,8.16 C18.88,9.66221452 17.6622145,10.88 16.16,10.88 Z M16.16,9.6 C16.95529,9.6 17.6,8.95529004 17.6,8.16 C17.6,7.36470996 16.95529,6.72 16.16,6.72 C15.36471,6.72 14.72,7.36470996 14.72,8.16 C14.72,8.95529004 15.36471,9.6 16.16,9.6 Z" id="Oval-4" fill-rule="nonzero"></path>
                    </g>
                    <path d="M35.8342037,15.7470239 L28.6453267,15.7470239 C28.2918644,15.7470239 28.0053267,15.4604862 28.0053267,15.1070239 C28.0053267,14.7535617 28.2918644,14.4670239 28.6453267,14.4670239 L35.9199763,14.4670239 L34.1023116,12.6073492 C33.8552474,12.3545749 33.8598765,11.9493758 34.1126508,11.7023116 C34.3654251,11.4552474 34.7706242,11.4598765 35.0176884,11.7126508 L38.2946067,15.0653055 L35.0170765,18.4094296 C34.7696671,18.661866 34.364462,18.6659411 34.1120256,18.4185317 C33.8595892,18.1711223 33.8555141,17.7659172 34.1029235,17.5134808 L35.8342037,15.7470239 Z" id="Combined-Shape" fill-rule="nonzero"></path>
                </g>
            </g>
        </g>
    </g>
</svg>