<svg viewBox="0 0 1024 1024" version="1.1" xmlns="http://www.w3.org/2000/svg" width="30" height="30">
    <path d="M511.8464 1011.78368c-278.92736 0-505.02656-226.11968-505.02656-505.02656 0-278.89664 226.0992-505.02656 505.02656-505.02656 278.92736 0 505.02656 226.12992 505.02656 505.02656C1016.87296 785.664 790.77376 1011.78368 511.8464 1011.78368M739.54304 260.33152c-23.67488-13.09696-54.05696-5.33504-67.74784 17.36704L455.59808 635.81184 340.13184 520.36608c-18.55488-18.60608-48.66048-18.60608-67.2256 0-18.55488 18.55488-18.55488 48.62976 0 67.18464l156.88704 156.8256c2.2016 2.28352 4.99712 3.35872 7.5264 5.05856 1.64864 1.21856 2.74432 2.88768 4.63872 3.88096 0.75776 0.4608 1.61792 0.43008 2.41664 0.79872 1.35168 0.62464 2.74432 0.86016 4.15744 1.3312 22.49728 8.6528 48.66048 1.19808 61.17376-19.47648l247.99232-410.83904C771.42016 302.46912 763.26912 273.42848 739.54304 260.33152" fill="#1296db"></path>
</svg>
