<?xml version="1.0" encoding="UTF-8"?>
<svg width="20px" height="25px" viewBox="0 0 20 25" version="1.1" xmlns="http://www.w3.org/2000/svg" xmlns:xlink="http://www.w3.org/1999/xlink">
    <!-- Generator: Sketch 50.2 (55047) - http://www.bohemiancoding.com/sketch -->
    <title>Icon/Copy</title>
    <desc>Created with Sketch.</desc>
    <defs></defs>
    <g id="Page-1" stroke="none" stroke-width="1" fill="none" fill-rule="evenodd">
        <g id="1.4-My-Workspace-new-Draft-Module" transform="translate(-813.000000, -984.000000)" fill="#FFFFFF">
            <g id="copy-link" transform="translate(671.000000, 976.449887)">
                <g id="Icon/Copy" transform="translate(142.000000, 7.995495)">
                    <g id="Icon/Send-Copy" transform="translate(5.000000, 0.000000)">
                        <g id="Group-Copy">
                            <path d="M10.6935594,18.6954637 L10.6935594,16.8328242 L12.6764117,16.8328242 L12.6764117,1.93170818 L2.20022126,1.93170818 L2.20022126,4.06681643 L0.488509548,4.06681643 L0.488509548,2.06906869 C0.488509548,0.964499187 1.38394005,0.0690686862 2.48850955,0.0690686862 L12.3881234,0.0690686862 C13.4926929,0.0690686862 14.3881234,0.964499187 14.3881234,2.06906869 L14.3881234,16.6954637 C14.3881234,17.8000332 13.4926929,18.6954637 12.3881234,18.6954637 L10.6935594,18.6954637 Z" id="Combined-Shape-Copy"></path>
                        </g>
                    </g>
                    <g transform="translate(0.000000, 4.997185)" id="Group-Copy">
                        <g>
                            <path d="M2.48850955,0.0690686862 L12.3881234,0.0690686862 C13.4926929,0.0690686862 14.3881234,0.964499187 14.3881234,2.06906869 L14.3881234,16.6954637 C14.3881234,17.8000332 13.4926929,18.6954637 12.3881234,18.6954637 L2.48850955,18.6954637 C1.38394005,18.6954637 0.488509548,17.8000332 0.488509548,16.6954637 L0.488509548,2.06906869 C0.488509548,0.964499187 1.38394005,0.0690686862 2.48850955,0.0690686862 Z M2.20022126,1.93170818 L2.20022126,16.8328242 L12.6764117,16.8328242 L12.6764117,1.93170818 L2.20022126,1.93170818 Z" id="Combined-Shape-Copy"></path>
                        </g>
                    </g>
                </g>
            </g>
        </g>
    </g>
</svg>