<svg viewBox="0 0 1024 1024" version="1.1" xmlns="http://www.w3.org/2000/svg" width="200" height="200">
    <path d="M213.333333 0l426.666667 0 298.666667 298.666667 0 597.333333q0 52.992-37.504 90.496t-90.496 37.504l-597.333333 0q-52.992 0-90.496-37.504t-37.504-90.496l0-768q0-52.992 37.504-90.496t90.496-37.504zM554.666667 384l0-298.666667-341.333333 0q-18.005333 0-30.336 12.330667t-12.330667 30.336l0 768q0 18.005333 12.330667 30.336t30.336 12.330667l597.333333 0q18.005333 0 30.336-12.330667t12.330667-30.336l0-512-298.666667 0zM818.005333 298.666667l-178.005333-178.005333 0 178.005333 178.005333 0z" fill="#8a8a8a" />
</svg>
