<?xml version="1.0" encoding="UTF-8"?>
<svg width="40px" height="36px" viewBox="0 0 40 36" version="1.1" xmlns="http://www.w3.org/2000/svg">
    <!-- Generator: Sketch 48.2 (47327) - http://www.bohemiancoding.com/sketch -->
    <title>noun_1514607</title>
    <desc>Created with Sketch.</desc>
    <defs></defs>
    <g id="Footer-Contact-FINAL-Copy" stroke="none" stroke-width="1" fill="none" fill-rule="evenodd" transform="translate(-929.000000, -47.000000)">
        <g id="noun_1514607" transform="translate(929.000000, 46.000000)" fill="#008BD0">
            <path d="M40,16 C40,13.0666667 38,10.4666667 35.2,9.6 C34.7333333,7.13333333 32.5333333,5.33333333 30,5.33333333 C29.0666667,5.33333333 28.1333333,5.6 27.3333333,6.06666667 C26,3.2 23.2,1.33333333 20,1.33333333 C17.0666667,1.33333333 14.3333333,2.93333333 12.9333333,5.53333333 C12.4,5.4 11.8666667,5.33333333 11.3333333,5.33333333 C8,5.33333333 5.33333333,7.73333333 5.33333333,10.6666667 C5.33333333,10.6666667 5.33333333,10.6666667 5.33333333,10.7333333 C2.66666667,11.0666667 0,13.6 0,16.6666667 C0,20 2.66666667,22.6666667 6,22.6666667 L6,25.3333333 C6,27.2 7.46666667,28.6666667 9.33333333,28.6666667 L9.33333333,34.2 L13,28.6666667 L16.0666667,28.6666667 C16.4,30.2 17.6666667,31.3333333 19.3333333,31.3333333 L25.6666667,31.3333333 L29.3333333,36.8666667 L29.3333333,31.3333333 L32.6666667,31.3333333 C34.5333333,31.3333333 36,29.8666667 36,28 L36,22.4 C38.8666667,21.5333333 40,18.8666667 40,16 Z M12.3333333,27.3333333 L10.6666667,29.8 L10.6666667,27.3333333 L9.33333333,27.3333333 C8.2,27.3333333 7.33333333,26.4666667 7.33333333,25.3333333 L7.33333333,17.3333333 C7.33333333,16.2 8.2,15.3333333 9.33333333,15.3333333 L22.6666667,15.3333333 C23.5333333,15.3333333 24.2666667,15.8666667 24.5333333,16.6666667 L19.3333333,16.6666667 C18.2,16.6666667 17.2666667,17.2 16.6666667,18 L10,18 L10,19.3333333 L16.0666667,19.3333333 C16,19.5333333 16,19.8 16,20 L16,20.6666667 L10,20.6666667 L10,22 L16,22 L16,23.3333333 L10,23.3333333 L10,24.6666667 L16,24.6666667 L16,27.3333333 L12.3333333,27.3333333 Z M34.6666667,28 C34.6666667,29.1333333 33.8,30 32.6666667,30 L28,30 L28,32.4666667 L26.3333333,30 L19.3333333,30 C18.2,30 17.3333333,29.1333333 17.3333333,28 L17.3333333,20 C17.3333333,18.8666667 18.2,18 19.3333333,18 L32.6666667,18 C33.8,18 34.6666667,18.8666667 34.6666667,20 L34.6666667,28 Z M36,20.9333333 L36,20 C36,18.1333333 34.5333333,16.6666667 32.6666667,16.6666667 L25.9333333,16.6666667 C25.6,15.1333333 24.3333333,14 22.6666667,14 L9.33333333,14 C7.46666667,14 6,15.4666667 6,17.3333333 L6,21.3333333 C3.4,21.3333333 1.33333333,19.2666667 1.33333333,16.6666667 C1.33333333,14.0666667 3.4,12 6,12 L6.86666667,12 L6.73333333,11.2 C6.66666667,11 6.66666667,10.8 6.66666667,10.6666667 C6.66666667,8.46666667 8.73333333,6.66666667 11.3333333,6.66666667 C11.9333333,6.66666667 12.5333333,6.8 13.0666667,6.93333333 L13.6666667,7.13333333 L13.9333333,6.6 C15,4.2 17.4,2.66666667 20,2.66666667 C22.9333333,2.66666667 25.4666667,4.53333333 26.3333333,7.33333333 L26.6666667,8.26666667 L27.4,7.6 C28.1333333,7 29.0666667,6.66666667 30,6.66666667 C32.0666667,6.66666667 33.7333333,8.2 34,10.2 L34,10.6666667 L34.4666667,10.8 C36.9333333,11.3333333 38.6666667,13.5333333 38.6666667,16 C38.6666667,19.0666667 37.2666667,20.4 36,20.9333333 Z" id="Shape" fill-rule="nonzero"></path>
            <rect id="Rectangle-path" x="20" y="20.6666667" width="12" height="1.33333333"></rect>
            <rect id="Rectangle-path" x="20" y="23.3333333" width="12" height="1.33333333"></rect>
            <rect id="Rectangle-path" x="20" y="26" width="12" height="1.33333333"></rect>
        </g>
    </g>
</svg>