<?xml version="1.0" encoding="UTF-8"?>
<svg width="42px" height="38px" viewBox="0 0 42 38" version="1.1" xmlns="http://www.w3.org/2000/svg" xmlns:xlink="http://www.w3.org/1999/xlink">
    <!-- Generator: Sketch 50.2 (55047) - http://www.bohemiancoding.com/sketch -->
    <title>noun_581001</title>
    <desc>Created with Sketch.</desc>
    <defs>
        <path d="M30.319767,0.461538462 C30.5329772,0.501923077 30.7014986,0.707723077 30.697674,0.923076923 L30.697674,12 C30.6976498,12.2416523 30.4760851,12.4615154 30.2325577,12.4615385 L20.4651158,12.4615385 L20.4651158,18.4615477 L34.8837205,18.4615477 C34.9127065,18.4569323 34.9419456,18.4569323 34.9709298,18.4615477 C35.18414,18.5017015 35.3526614,18.7077323 35.3488367,18.9230862 L35.3488367,25.3846246 L39.5348833,25.3846246 C39.5638693,25.3800092 39.5931084,25.3800092 39.6220926,25.3846246 C39.8353033,25.4247785 40.0038247,25.6308092 39.9999995,25.8461631 L39.9999995,35.0769323 C39.9999753,35.3185938 39.7784112,35.5384246 39.5348833,35.5384708 L30.2325577,35.5384708 C29.9890302,35.5384246 29.7674656,35.3185938 29.7674414,35.0769323 L29.7674414,25.8461631 C29.7674656,25.6045015 29.9890302,25.3846246 30.2325577,25.3846246 L34.4186042,25.3846246 L34.4186042,19.3846246 L20.4651158,19.3846246 L20.4651158,25.3846246 L24.6511623,25.3846246 C24.8946898,25.3846246 25.1162544,25.6045015 25.1162786,25.8461631 L25.1162786,35.0769323 C25.1162544,35.3185938 24.8946898,35.5384246 24.6511623,35.5384708 L15.3488367,35.5384708 C15.1053093,35.5384246 14.8837447,35.3185938 14.8837205,35.0769323 L14.8837205,25.8461631 C14.8799065,25.6308092 15.0484172,25.4249631 15.2616274,25.3846246 C15.2906135,25.3800092 15.3198526,25.3800092 15.3488367,25.3846246 L19.5348833,25.3846246 L19.5348833,19.3846246 L5.58139488,19.3846246 L5.58139488,25.3846246 L9.7674414,25.3846246 C10.0109688,25.3846246 10.2325335,25.6045015 10.2325577,25.8461631 L10.2325577,35.0769323 C10.2325335,35.3185938 10.0109688,35.5384246 9.7674414,35.5384708 L0.465115907,35.5384708 C0.221588465,35.5384246 2.38139535e-05,35.3185938 -3.72093022e-07,35.0769323 L-3.72093022e-07,25.8461631 C-0.00381432558,25.6308092 0.164696372,25.4249631 0.377906605,25.3846246 C0.406892651,25.3800092 0.436131721,25.3800092 0.465115907,25.3846246 L4.65116233,25.3846246 L4.65116233,18.9230862 C4.65118651,18.6814246 4.87275116,18.4615477 5.1162786,18.4615477 L19.5348833,18.4615477 L19.5348833,12.4615385 L9.7674414,12.4615385 C9.52391395,12.4615154 9.3023493,12.2416523 9.30232512,12 L9.30232512,0.923076923 C9.3023493,0.681424615 9.52391395,0.461561538 9.7674414,0.461538462 L30.2325577,0.461538462 C30.2615437,0.458769231 30.2907828,0.458769231 30.319767,0.461538462 Z M29.7674414,1.38461538 L10.2325577,1.38461538 L10.2325577,11.5384615 L29.7674414,11.5384615 L29.7674414,1.38461538 Z M39.069767,26.3077015 L30.697674,26.3077015 L30.697674,34.6153938 L39.069767,34.6153938 L39.069767,26.3077015 Z M24.186046,26.3077015 L15.813953,26.3077015 L15.813953,34.6153938 L24.186046,34.6153938 L24.186046,26.3077015 Z M9.30232512,26.3077015 L0.930232186,26.3077015 L0.930232186,34.6153938 L9.30232512,34.6153938 L9.30232512,26.3077015 Z" id="path-1"></path>
        <filter x="-5.0%" y="-2.9%" width="110.0%" height="111.4%" filterUnits="objectBoundingBox" id="filter-2">
            <feOffset dx="0" dy="1" in="SourceAlpha" result="shadowOffsetOuter1"></feOffset>
            <feGaussianBlur stdDeviation="0.5" in="shadowOffsetOuter1" result="shadowBlurOuter1"></feGaussianBlur>
            <feColorMatrix values="0 0 0 0 0   0 0 0 0 0   0 0 0 0 0  0 0 0 0.5 0" type="matrix" in="shadowBlurOuter1"></feColorMatrix>
        </filter>
    </defs>
    <g id="Symbols" stroke="none" stroke-width="1" fill="none" fill-rule="evenodd">
        <g id="Runner-Overlay---Define-Workflow-Input-Test-Files" transform="translate(-77.000000, -553.000000)" fill-rule="nonzero">
            <g id="noun_581001" transform="translate(78.000000, 553.000000)">
                <g id="Shape">
                    <use fill="black" fill-opacity="1" filter="url(#filter-2)" xlink:href="#path-1"></use>
                    <use fill="#FFFFFF" fill-rule="evenodd" xlink:href="#path-1"></use>
                </g>
            </g>
        </g>
    </g>
</svg>