<?xml version="1.0" encoding="UTF-8"?>
<svg width="42px" height="42px" viewBox="0 0 42 42" version="1.1" xmlns="http://www.w3.org/2000/svg" xmlns:xlink="http://www.w3.org/1999/xlink">
    <!-- Generator: Sketch 50.2 (55047) - http://www.bohemiancoding.com/sketch -->
    <title>Category Icon/Single File Upload white</title>
    <desc>Created with Sketch.</desc>
    <defs></defs>
    <g id="Symbols" stroke="none" stroke-width="1" fill="none" fill-rule="evenodd">
        <g id="Runner-Overlay---Define-Workflow-Input-Test-Files" transform="translate(-77.000000, -370.000000)" fill="#FFFFFF">
            <g id="Category-Icon/Single-File-Upload-white" transform="translate(78.000000, 370.000000)">
                <g id="Category-Icon/Single-File-Upload-grey" transform="translate(0.000000, 0.320000)">
                    <path d="M19.84,34.4999737 C19.84,34.8534359 19.5534622,35.1399737 19.2,35.1399737 C18.8465378,35.1399737 18.56,34.8534359 18.56,34.4999737 L18.56,13.76 C18.56,13.4065378 18.8465378,13.12 19.2,13.12 C19.5534622,13.12 19.84,13.4065378 19.84,13.76 L19.84,34.4999737 Z" id="Path-5" fill-rule="nonzero"></path>
                    <path d="M12.4368872,20.9476854 C12.1785917,21.1889715 11.7736007,21.1751827 11.5323146,20.9168872 C11.2910285,20.6585917 11.3048173,20.2536007 11.5631128,20.0123146 L19.1885793,12.8890036 L26.9913318,20.0071862 C27.2524596,20.2454041 27.2710318,20.6502039 27.0328138,20.9113318 C26.7945959,21.1724596 26.3897961,21.1910318 26.1286682,20.9528138 L19.198869,14.6309964 L12.4368872,20.9476854 Z" id="Path-5" fill-rule="nonzero"></path>
                    <path d="M36.8960434,11.7431973 C35.2531742,10.0996447 33.0868285,9.17296814 30.7762875,9.12034712 C30.20224,6.06627797 27.4796149,3.75642034 24.3168868,3.75642034 C23.8337302,3.75642034 23.3539905,3.80904136 22.8845017,3.91291661 C20.8411661,1.5613722 17.9135241,0.221928136 14.7829153,0.221928136 C8.85997559,0.221928136 4.0413939,5.03982644 4.0413939,10.9627661 C4.0413939,11.6065193 4.09948203,12.2516393 4.21497492,12.8871919 C1.6891661,14.1357451 0.0866169492,16.6923064 0.0866169492,19.5502427 C0.0866169492,21.3379905 0.732420339,23.0676502 1.9044339,24.4193953 C3.03749424,25.7287702 4.59698983,26.6028258 6.30068068,26.8843824 C6.69636339,26.9944081 7.10093017,27.0497627 7.50481356,27.0497627 L9.90351186,27.0497627 C10.2807431,27.0497627 10.5869017,26.7442875 10.5869017,26.3663729 C10.5869017,25.9884583 10.2807431,25.6829831 9.90351186,25.6829831 L7.50481356,25.6829831 C7.21437288,25.6829831 6.92256542,25.6412963 6.63759186,25.5592895 C6.61093966,25.5510888 6.58360407,25.5449383 6.55626847,25.5415214 C5.15463593,25.3173695 3.86917966,24.6011769 2.93703593,23.5241546 C1.98029017,22.42048 1.45339661,21.00928 1.45339661,19.5502427 C1.45339661,17.0975566 2.9794061,14.8348529 5.25167729,13.9197939 C5.56466983,13.7933668 5.73893424,13.457139 5.6610278,13.1284285 C5.4929139,12.4177031 5.40817356,11.6892095 5.40817356,10.9627661 C5.40817356,5.79428881 9.61375458,1.5887078 14.7829153,1.5887078 C17.6449519,1.5887078 20.3129058,2.8721139 22.1027037,5.1095322 C22.2769681,5.32616678 22.5674088,5.41774102 22.8298305,5.33778441 C23.3109369,5.19563932 23.8118617,5.1232 24.3162034,5.1232 C26.9909912,5.1232 29.2687295,7.20822237 29.501082,9.87002576 C29.532518,10.2342725 29.8537112,10.5089953 30.2118075,10.4932773 C32.3590183,10.3982861 34.4105546,11.1903349 35.9290468,12.7095105 C37.3641654,14.1446292 38.1534807,16.0485532 38.1534807,18.0713871 C38.1534807,22.2550997 34.7495159,25.6597478 30.5644366,25.6597478 L30.4851634,25.6570142 C30.4427932,25.6549641 30.4004231,25.6563308 30.3573695,25.6611146 C30.2405098,25.6754658 30.1250169,25.6822997 30.012941,25.6822997 L29.3350183,25.6822997 C28.9571037,25.6822997 28.6516285,25.9877749 28.6516285,26.3656895 C28.6516285,26.7436041 28.9571037,27.0490793 29.3350183,27.0490793 L30.012941,27.0490793 C30.1598698,27.0490793 30.310899,27.0408786 30.4632949,27.0244773 C30.4974644,27.0258441 30.5309505,27.0265275 30.5637532,27.0265275 C35.5026115,27.0265275 39.5195769,23.009562 39.5195769,18.0713871 C39.5216271,15.6836231 38.5894834,13.4359539 36.8960434,11.7431973 Z" id="Shape" fill-rule="nonzero"></path>
                    <path d="M12.8,38.72 C12.4465378,38.72 12.16,38.4334622 12.16,38.08 C12.16,37.7265378 12.4465378,37.44 12.8,37.44 L25.28,37.44 C25.6334622,37.44 25.92,37.7265378 25.92,38.08 C25.92,38.4334622 25.6334622,38.72 25.28,38.72 L12.8,38.72 Z" id="Path-7" fill-rule="nonzero"></path>
                </g>
            </g>
        </g>
    </g>
</svg>