<?xml version="1.0" encoding="UTF-8"?>
<svg width="42px" height="42px" viewBox="0 0 42 42" version="1.1" xmlns="http://www.w3.org/2000/svg" xmlns:xlink="http://www.w3.org/1999/xlink">
    <!-- Generator: Sketch 50.2 (55047) - http://www.bohemiancoding.com/sketch -->
    <title>noun_1429509</title>
    <desc>Created with Sketch.</desc>
    <defs>
        <filter x="-5.0%" y="-2.5%" width="110.0%" height="110.0%" filterUnits="objectBoundingBox" id="filter-1">
            <feOffset dx="0" dy="1" in="SourceAlpha" result="shadowOffsetOuter1"></feOffset>
            <feGaussianBlur stdDeviation="0.5" in="shadowOffsetOuter1" result="shadowBlurOuter1"></feGaussianBlur>
            <feColorMatrix values="0 0 0 0 0   0 0 0 0 0   0 0 0 0 0  0 0 0 0.5 0" type="matrix" in="shadowBlurOuter1" result="shadowMatrixOuter1"></feColorMatrix>
            <feMerge>
                <feMergeNode in="shadowMatrixOuter1"></feMergeNode>
                <feMergeNode in="SourceGraphic"></feMergeNode>
            </feMerge>
        </filter>
    </defs>
    <g id="Symbols" stroke="none" stroke-width="1" fill="none" fill-rule="evenodd">
        <g id="Runner-Overlay---Define-Workflow-Input-Test-Files" transform="translate(-77.000000, -458.000000)" fill="#FFFFFF" fill-rule="nonzero">
            <g id="noun_1429509" filter="url(#filter-1)" transform="translate(78.000000, 458.000000)">
                <path d="M20,40 C26.1756558,39.9989647 32.0034695,37.1410511 35.785478,32.2589268 C35.7959902,32.247761 35.8108146,32.2421073 35.8203122,32.2298976 C37.8974115,29.5608169 39.2557824,26.4039289 39.7657756,23.0605415 C39.7688146,23.0409512 39.7713122,23.0212098 39.7742634,23.0016195 C39.8166602,22.7182959 39.8529431,22.4335805 39.8831122,22.1474732 C39.8905561,22.0781301 39.8976423,22.0086992 39.9043707,21.9391805 C39.9278927,21.6926569 39.9467789,21.4452016 39.9610293,21.1968146 C39.9658244,21.116161 39.9719561,21.035839 39.9757659,20.9549366 C39.9905024,20.6378049 40,20.3197366 40,20 C40,19.6273561 39.9878537,19.2576049 39.9676341,18.8899366 C39.959478,18.7394634 39.9448,18.5903561 39.9333366,18.4405707 C39.9169317,18.2292976 39.900439,18.0181756 39.8775122,17.8087805 C39.857239,17.6218049 39.8318098,17.435961 39.806322,17.2501171 C39.7832488,17.0830293 39.759161,16.9163902 39.7319463,16.7506049 C39.6987496,16.5473138 39.6624764,16.3447366 39.6231268,16.1428732 C39.5946341,15.9977268 39.5633122,15.8537171 39.5316927,15.7097024 C39.4856927,15.4998 39.4393073,15.2900488 39.3864293,15.0818146 C39.3517415,14.9450683 39.3120244,14.8104293 39.2745415,14.6748439 C39.192039,14.3770829 39.1036146,14.0809268 39.007,13.7868878 C38.9325951,13.5597756 38.8582829,13.3326683 38.7760195,13.1091902 C38.7234098,12.9666976 38.6642829,12.8261366 38.6083073,12.6845951 C38.5275024,12.4797561 38.4458341,12.2754195 38.3585122,12.0739171 C38.2997707,11.9386 38.2375366,11.8044098 38.1756146,11.6700146 C38.0817382,11.4660374 37.9847171,11.2638764 37.8845512,11.0635317 C37.8470683,10.9887415 37.814761,10.9124049 37.7762976,10.8379415 C37.7696585,10.8251366 37.7590293,10.8158488 37.7513756,10.8038488 C36.8282725,9.02878944 35.6453218,7.40149832 34.2416439,5.97579024 C34.2267786,5.95222152 34.2098713,5.93000439 34.1911171,5.90939512 C34.0826829,5.80021463 33.9645122,5.70238049 33.8537561,5.59585366 C33.6663024,5.4154878 33.4765902,5.23768293 33.2822293,5.06466829 C33.1221073,4.92226341 32.961361,4.78122927 32.7968976,4.64415122 C32.5092,4.40396911 32.2150537,4.17157886 31.9144585,3.94698049 C31.7734244,3.84229756 31.6290927,3.74252683 31.485278,3.64156585 C31.2082667,3.44649268 30.9262943,3.25830569 30.639361,3.07700488 C30.5445951,3.01742927 30.4526244,2.95413171 30.3568146,2.89610244 C29.9766976,2.66506341 29.5855707,2.45102439 29.1894634,2.24517073 C29.1322683,2.21551707 29.0785902,2.1804439 29.0210683,2.15129756 C29.0125512,2.14703902 29.0027268,2.14867805 28.9940341,2.1449561 C27.6523052,1.46555141 26.2376962,0.940863043 24.7774488,0.580995122 C24.7735171,0.579921951 24.7705707,0.576917073 24.7666098,0.575931707 C24.7206098,0.564712195 24.6738976,0.557292683 24.627839,0.546395122 C24.3200732,0.473182114 24.0097268,0.407105691 23.6968,0.348165854 C23.6156976,0.332921951 23.5345659,0.318809756 23.4533122,0.30457561 C23.1579626,0.252920325 22.8605073,0.207923577 22.5609463,0.169585366 C22.4705854,0.157912195 22.3804293,0.145497561 22.2899512,0.13504878 C21.9962098,0.101390244 21.7003805,0.0754731707 21.4030049,0.0547219512 C21.3139805,0.0484097561 21.2251707,0.0394487805 21.1360878,0.0343560976 C20.7598146,0.0131707317 20.3814634,0 20,0 C19.9380488,0 19.8770732,0.00190731707 19.8156439,0.00428780488 L19.6970293,0.00762439024 L19.6966146,0.00771219512 C18.5791152,0.024249995 17.4649654,0.134378197 16.3658537,0.336941463 C16.3629268,0.337429268 16.360078,0.336258537 16.3571902,0.336790244 C16.3394439,0.340063415 16.3220683,0.34464878 16.3043707,0.347956098 C16.0123837,0.402769106 15.7227902,0.464022764 15.4355902,0.531717073 C15.3912878,0.542107317 15.3467756,0.551814634 15.302561,0.562502439 C15.0075366,0.633839024 14.715213,0.711795122 14.4255902,0.796370732 C14.3933171,0.80575122 14.3608049,0.814419512 14.3285902,0.824 C14.0210911,0.915076423 13.7168276,1.01334797 13.4158,1.11881463 C13.4021024,1.12360976 13.3882293,1.12798537 13.3745659,1.13280976 C11.1386506,1.92042917 9.06058156,3.09931648 7.23737561,4.61443415 C7.16651707,4.67317561 7.09869268,4.73558049 7.02863415,4.79530732 C6.85323902,4.9451561 6.6781122,5.0951561 6.50804878,5.25086829 C6.3844878,5.36377073 6.26530732,5.48152195 6.1444878,5.59754634 C6.03292683,5.70486341 5.92002927,5.81075122 5.811,5.92061463 C5.6694878,6.06296098 5.53259024,6.20992195 5.39524878,6.35661463 C5.31158537,6.44608293 5.22679024,6.53433171 5.14476585,6.62534634 C5.00027805,6.78546829 4.86022439,6.94973659 4.72076585,7.11466829 C4.65023415,7.19818049 4.57892683,7.28092195 4.50976098,7.36559512 C4.37048293,7.53589756 4.2353122,7.7097122 4.10146829,7.88490244 C4.03569756,7.97097561 3.96980976,8.05681463 3.90543902,8.14396098 C3.77665854,8.31828293 3.65141463,8.49531707 3.52812195,8.67416098 C3.46190732,8.77015122 3.39644553,8.86666667 3.33173659,8.96370732 C3.27350244,9.05144878 3.21145366,9.1361561 3.1545561,9.22493659 C3.14749756,9.23595122 3.14702439,9.24959024 3.14089756,9.26108293 C-0.789029897,15.4155737 -1.04921099,23.2235566 2.46228823,29.6260139 C5.97378745,36.0284712 12.697805,40.0058923 20,40 Z M33.9715122,31.4067268 C33.467092,31.2378293 33.05666,30.8650704 32.8401268,30.3791902 C32.7367264,30.2056921 32.6936736,30.0028431 32.7176878,29.8023024 C33.0306634,29.1758732 33.0559122,27.5657171 33.0559122,25.6816829 C33.0559122,25.031439 33.721878,24.5183805 34.4931268,23.9243463 C34.9334923,23.6025321 35.3482322,23.2470448 35.7336146,22.8610829 C36.0070904,22.6339132 36.1283335,22.2714691 36.0465902,21.9254732 C35.8841512,21.3986049 35.2453317,21.2604585 34.569361,21.1142098 C34.2458223,21.0616602 33.9305097,20.9671787 33.6313854,20.8331512 C33.737738,20.2142335 33.5690156,19.579701 33.1693024,19.0953463 C32.6825367,18.5534606 31.9751869,18.2631898 31.2480927,18.3069512 C30.5811707,18.3069512 29.878522,18.0601902 29.7256098,16.2290146 C29.6999194,15.5842082 29.2843327,15.019969 28.676161,14.8041854 C28.229446,14.6439461 27.901957,14.2578212 27.8167854,13.7909415 C27.5600195,12.827239 28.162639,12.4761561 29.5984146,11.9049854 C29.7965854,11.8263854 29.9928488,11.7482585 30.1800634,11.6668 C30.7855317,11.4043171 32.5123805,11.3824098 34.7951561,11.6072537 L34.7956439,11.6072537 C35.4432881,11.6717906 36.095696,11.6727481 36.7435268,11.6101122 L37.0535561,11.580039 C37.0681902,11.6095756 37.0841317,11.6383366 37.0986341,11.667961 C37.2111171,11.897839 37.316039,12.1299805 37.4187561,12.3627805 C37.4660049,12.4701415 37.5145659,12.5766732 37.5598829,12.6850439 C37.6722472,12.9530634 37.7782797,13.2228878 37.8779805,13.4945171 C37.9445512,13.6768488 38.004278,13.862322 38.0653756,14.0471659 C38.1075024,14.174239 38.1510634,14.3008927 38.1903951,14.428678 C38.2518585,14.6289317 38.3078488,14.8315415 38.3628098,15.0345317 C38.3942488,15.1505902 38.4258098,15.2665854 38.4550049,15.3832049 C38.5064228,15.5886715 38.5542683,15.7954862 38.5985415,16.0036488 C38.6244732,16.1246244 38.6491057,16.2459008 38.672439,16.367478 C38.711678,16.5694293 38.7486878,16.7721268 38.781439,16.9762585 C38.8038,17.1164927 38.8227366,17.2574976 38.8419659,17.3984439 C38.867722,17.5856878 38.893561,17.7729317 38.9137805,17.9618585 C38.9332927,18.1462146 38.9468878,18.3318195 38.9610585,18.517278 C38.9726976,18.6672439 38.9872878,18.8163805 38.9953854,18.9672732 C39.0134927,19.3098878 39.0243902,19.6539171 39.0243902,20 C39.0243902,20.3031512 39.0155463,20.6041902 39.0014634,20.9039024 C38.997922,20.980361 38.9921951,21.0564585 38.9877366,21.1327415 C38.9737122,21.3700341 38.9563561,21.6063756 38.9336976,21.8412537 C38.9276228,21.9049382 38.9212407,21.9685431 38.9145512,22.0320683 C38.8838195,22.3203317 38.8485463,22.6073171 38.8049854,22.8916195 L38.8046585,22.8939707 C38.3261683,26.0040064 37.0800208,28.9457281 35.1789024,31.453122 C34.7760616,31.4873271 34.3705403,31.4717446 33.9715122,31.4067268 Z M31.9436,6.61919024 C31.615269,7.17604658 31.0324241,7.5341099 30.3872927,7.5752878 C29.8503987,7.58776421 29.3155525,7.64609344 28.7885902,7.74963902 C28.3365072,7.85112676 27.872681,7.89039369 27.4099707,7.86635122 C26.7481142,7.73701264 26.1766673,7.32306191 25.8474732,6.73449268 C25.794122,6.60110732 25.804122,6.11187317 27.0474732,4.45314634 C27.5386328,3.90436886 28.1335104,3.45818494 28.7978439,3.14029268 C28.8406585,3.16273171 28.8843366,3.18376098 28.9269707,3.20650732 C29.1998163,3.35173984 29.4683805,3.50353333 29.7326634,3.6618878 C29.8990976,3.7614 30.0623707,3.86550732 30.2254976,3.96992195 C30.3941317,4.07749268 30.5620829,4.18592683 30.7270585,4.29859024 C30.9003691,4.41735447 31.071426,4.5390878 31.2402293,4.66379024 C31.3449415,4.74051707 31.448078,4.8193561 31.5511805,4.89819512 C32.012039,5.25151545 32.4560764,5.6245935 32.8832927,6.01742927 C32.2195951,6.23380488 32.0307317,6.40086341 31.9436,6.61919024 Z M21.7430439,3.96722439 C21.592023,4.12801627 21.3766771,4.21233463 21.1566293,4.19683415 C20.6585375,4.02591405 20.245702,3.66922892 20.0042878,3.20122439 C19.8614634,2.98700488 19.8090927,2.28066341 20.0928927,0.977965854 C20.2348439,0.97864878 20.375439,0.984931707 20.5166244,0.988697561 C20.6892488,0.993463415 20.8618439,0.995278049 21.034439,1.00474634 C21.1363512,1.01022439 21.236878,1.0208439 21.3383415,1.0279122 C21.568639,1.04425854 21.798961,1.06033659 22.0287854,1.08501951 C22.079161,1.09038537 22.1287854,1.09838537 22.1790293,1.10416585 C22.4556829,1.1361122 22.732039,1.1716 23.0074098,1.21563902 C23.0409024,1.22097073 23.0738049,1.22799512 23.107239,1.23350244 C23.3926439,1.28066341 23.6774244,1.33309268 23.9608098,1.39323415 C23.9702488,1.39522927 23.979478,1.39770244 23.9889171,1.39972683 C23.3585051,2.35216311 22.6031407,3.21570086 21.7430439,3.96722439 Z M16.4672244,5.44634146 C17.3132634,6.47387805 17.8110683,7.7276878 17.5328683,8.1297561 C17.1724293,8.75675603 16.530675,9.17039051 15.8107854,9.23970244 C15.4390323,9.18836162 15.0796251,9.07022725 14.7499073,8.891 C14.1668293,8.62709756 13.5056244,8.32697561 13.1183317,8.86956098 C12.9483523,9.18773636 12.8610436,9.54352148 12.8644244,9.90423902 C12.8215512,10.3467902 12.7562878,11.0156146 12.5,11.1008878 C12.0276379,11.1385032 11.5523583,11.1120636 11.0870829,11.0222878 C9.80182927,10.8579415 8.3441561,10.671678 8.05211707,11.7201707 C7.74009268,12.8439317 8.67330732,13.7395122 9.12157073,14.1696732 C9.18029711,14.2223277 9.23626591,14.277979 9.28925366,14.3364049 C9.38405366,14.4550195 10.2848634,15.4949415 12.6543463,15.4949415 C13.1688293,15.4949415 13.6028049,15.4596878 13.9519854,15.4315854 C14.916161,15.3539366 15.1595902,15.3544146 15.5302049,15.8669902 C15.7635373,16.311796 15.876522,16.8098769 15.8579512,17.3118244 C15.904161,18.0230439 15.967039,18.9972293 16.9012049,19.1072683 C17.5032404,19.1027613 18.0961262,18.9594709 18.6337707,18.6885366 C19.3731024,18.396522 20.2124683,18.0654439 20.7736341,18.3207756 C21.9159756,18.8400195 23.0730829,19.9947463 22.9077805,20.8226829 C22.8682439,21.0199024 22.8382293,21.2247415 22.8082195,21.4329268 C22.6472049,22.5457317 22.4928634,23.246 21.3953024,23.6118537 C19.4645707,24.2554341 19.0120146,25.2424732 18.8829171,26.7297073 C18.7414851,27.8233002 18.0371102,28.7627074 17.0269707,29.2049366 C15.7088488,29.8642341 15.6035561,30.7888732 15.4820927,31.8597561 L15.4601805,32.0522098 C15.4120502,32.5168665 15.4436277,32.9863305 15.5535512,33.4403561 C15.636439,33.8405073 15.6450146,33.9486488 15.5440244,34.0944146 C15.398704,34.1618253 15.2326576,34.1691875 15.0819415,34.1149024 C14.6602476,34.0458107 14.3098859,33.7520699 14.1682829,33.3488976 C14.1154657,32.7357018 14.1028941,32.1197036 14.1306488,31.5048634 C14.1554195,29.7946878 14.1478,28.6290049 13.8305366,28.0344927 C13.6182074,27.4867576 13.4635045,26.9183971 13.3689317,26.3386098 C13.2188638,25.3667251 12.9255557,24.4224544 12.4985707,23.5365854 C12.0724389,22.9629878 11.5325732,22.4834522 10.9127171,22.1279512 C10.1748146,21.6263317 9.41166829,21.108039 9.41166829,20.5163854 C9.41166829,19.0410634 9.41166829,16.8121171 7.43805854,15.4963854 C5.72788293,14.3564293 3.95959024,13.1774049 3.95959024,10.5883268 C3.96291372,10.2842226 3.9866664,9.98068533 4.0306878,9.67976585 C4.0769561,9.60842927 4.1212878,9.53575122 4.16847805,9.46507317 C4.22346829,9.38263415 4.28003902,9.30146829 4.33624878,9.22000976 C4.45653171,9.04577561 4.57845366,8.87276585 4.70433659,8.70279024 C4.75962439,8.62811707 4.81649268,8.55487805 4.87279512,8.48109756 C5.00227805,8.31144878 5.13337073,8.1431122 5.26836098,7.97801951 C5.3301122,7.9025122 5.39364878,7.82861951 5.45649756,7.7541561 C5.58878049,7.59728293 5.72235122,7.44147317 5.85956585,7.28900976 C5.9354,7.20486829 6.01325366,7.12278537 6.0904878,7.0400439 C6.21803415,6.90323415 6.34620976,6.76702439 6.4776878,6.63399512 C6.57546341,6.53526829 6.67567805,6.43927805 6.77547805,6.34277561 C6.8903122,6.2315561 7.00497073,6.12016098 7.12257561,6.01181463 C7.24959024,5.8950439 7.3794878,5.78172683 7.50947805,5.66849756 C7.60427805,5.5857561 7.69833171,5.50218537 7.79479512,5.42129268 C7.95667317,5.28582439 8.12188293,5.1545561 8.28804878,5.02459512 C8.35682927,4.97070732 8.42456098,4.91553659 8.49407805,4.86257073 C8.69337886,4.71105528 8.89573821,4.56381626 9.1011561,4.42085366 C9.14146829,4.39256098 9.18094634,4.36318049 9.22153171,4.33516585 C9.45674146,4.17311057 9.69548293,4.01643415 9.9377561,3.86513659 C9.95092683,3.8568878 9.96380976,3.84819512 9.97699512,3.83998049 C11.5505636,2.86100151 13.2589455,2.11760427 15.0478244,1.63342439 L15.0577073,1.63059512 C15.3493659,1.55202276 15.6432976,1.48058699 15.9395024,1.4162878 L15.9631415,1.41083902 C15.9502211,1.52793821 15.9297577,1.65518862 15.9017512,1.79259024 C15.8631854,2.04982927 15.5521171,4.33498537 16.4672244,5.44634146 Z M3.04178537,11.3942195 C3.38194634,13.9561707 5.31550732,15.2538732 6.9316878,16.3314585 C8.43607805,17.3342195 8.43607805,19.0987024 8.43607805,20.5163854 C8.43607805,21.6244244 9.4607561,22.3208829 10.3644341,22.934922 C10.8617198,23.2191372 11.30176,23.5934301 11.6620732,24.038678 C12.0277443,24.8338459 12.280907,25.6760602 12.4142683,26.5410585 C12.5197007,27.2120787 12.7063812,27.867779 12.9701951,28.4937073 C13.1926585,28.9110098 13.1702732,30.4635073 13.1550293,31.490561 C13.1229824,32.1638604 13.1400178,32.8385999 13.206,33.5094244 C13.4809668,34.4535728 14.3406564,35.1071373 15.3239512,35.119561 C15.7212814,35.1434905 16.10437,34.9676695 16.3452927,34.6508098 C16.6091978,34.2302333 16.6694012,33.7130839 16.5091659,33.2431317 C16.4200343,32.8913308 16.392952,32.5266787 16.4291366,32.1655707 L16.4515268,31.9697805 C16.5663317,30.9608244 16.6182585,30.5001707 17.4633415,30.0776293 C18.7892218,29.499028 19.7023233,28.2530626 19.8547268,26.8144829 C19.9595268,25.6083073 20.2396341,25.0252146 21.7039951,24.5369463 L21.7039951,24.5374341 C23.4279854,23.9629317 23.6275854,22.5814488 23.7738293,21.5724976 C23.8014585,21.3824244 23.8281366,21.1947366 23.8643415,21.0141902 C24.1454,19.6084146 22.6896098,18.1197561 21.1776049,17.4328244 C20.2401073,17.0055073 19.1958976,17.4180585 18.2755463,17.7810537 C17.8724598,17.9845487 17.4319854,18.1033811 16.9812439,18.1302341 C16.8745036,17.849006 16.8236931,17.5496443 16.8316634,17.2489463 C16.8471878,16.5628377 16.6702797,15.8860903 16.3209756,15.2953512 C15.6149902,14.3183122 14.8461268,14.3788098 13.8729024,14.4593171 C13.5246732,14.4874244 13.1292878,14.5193171 12.6543659,14.5193171 C10.7388732,14.5193171 10.0571854,13.7347317 10.0505171,13.7266341 C9.97109896,13.6348446 9.8864837,13.5476837 9.7970878,13.4655805 C9.33215122,13.019239 8.8481561,12.4999756 8.99344878,11.9773951 C9.15827317,11.7596927 10.423039,11.9202293 10.963722,11.9897805 C11.5705238,12.1215112 12.1971537,12.1339702 12.8087122,12.0264634 C13.6661805,11.740639 13.7638341,10.7335902 13.8352927,9.99854634 C13.847678,9.87182927 13.8638732,9.70414634 13.8815024,9.58267317 C14.0196488,9.63126341 14.2078195,9.71653171 14.3473951,9.77989268 C14.7999955,10.0242939 15.2982184,10.1725285 15.8108098,10.2152976 C16.8547074,10.1579782 17.8013708,9.58415536 18.3351024,8.68519024 C19.0791951,7.61049756 17.9840146,5.75359512 17.2203902,4.82610244 C16.6792341,4.16918537 16.7864146,2.47759024 16.862161,1.96310732 C16.9121267,1.71967842 16.9403839,1.47229446 16.9466,1.22386829 C17.6570624,1.10822567 18.3735179,1.03301682 19.0925073,0.998604878 C18.8274341,2.32217561 18.8602146,3.24422439 19.1925756,3.7423561 C19.7642244,4.60125366 20.3825512,5.07953171 21.0299415,5.16430732 C21.0951873,5.1727166 21.1608976,5.17701289 21.2266829,5.17717073 C21.6601718,5.16872216 22.0747425,4.99806665 22.3885561,4.69889268 L22.3890439,4.69889268 C23.0973805,4.07329756 24.4846537,2.64263415 24.9637463,1.63665366 C25.9134573,1.89405467 26.8415726,2.2253698 27.7395951,2.62756585 C27.1782768,2.94929644 26.6795097,3.36951805 26.2671902,3.86809756 C25.2425122,5.23433171 24.6251366,6.30614634 24.9414488,7.09694634 C25.402851,8.01329239 26.2706565,8.6572556 27.2813902,8.83332195 C27.4127918,8.85058163 27.5452022,8.85901679 27.6777317,8.85857073 C28.1060071,8.8450087 28.5324069,8.79577157 28.9525024,8.71137073 C29.4253875,8.61742712 29.9053827,8.56372281 30.3873366,8.55083415 C31.3867938,8.51307415 32.2963756,7.9633292 32.7944439,7.09599512 C33.080415,6.97085996 33.3771373,6.87189595 33.6809707,6.80031707 C34.7964706,7.95573277 35.7620218,9.24703062 36.5548341,10.6437317 C36.0013169,10.6924383 35.4444869,10.6899889 34.8914195,10.6364146 C33.1112195,10.4606341 30.781761,10.3410634 29.7913805,10.7721805 C29.6132195,10.8498293 29.4265024,10.9236683 29.2383122,10.9984585 C28.0264244,11.4805463 26.3667415,12.140322 26.8745561,14.0424732 C27.0293667,14.7810713 27.5418155,15.3940799 28.2412683,15.6773805 C28.5999756,15.8560195 28.7209756,15.9160439 28.7538439,16.3100049 C28.9181902,18.2826634 29.7570829,19.2825659 31.2481268,19.2825659 C31.6866871,19.2487006 32.1176708,19.4111483 32.4247659,19.7260683 C32.6476711,20.0068442 32.7342468,20.37217 32.6610488,20.7231171 C32.5038439,21.6653805 33.6223659,21.9073756 34.3626488,22.067439 C34.5450878,22.1069756 34.8128195,22.1650976 34.9928927,22.2241659 C34.650075,22.5586762 34.2841082,22.8686099 33.8977122,23.1516634 C33.0045171,23.8395463 32.0803512,24.5512439 32.0803512,25.6816732 C32.0803512,26.7244537 32.0803512,28.8948 31.8450244,29.3654585 C31.6670965,29.8234915 31.7034473,30.3371096 31.9441122,30.7655171 C32.2796399,31.5295847 32.9321331,32.1090069 33.7305073,32.3518585 C33.9450688,32.3996688 34.1638639,32.4259599 34.3836439,32.4303415 C28.1036801,39.7115697 17.3759096,41.1576191 9.39216709,35.7990666 C1.40842454,30.440514 -1.31750556,19.964569 3.04182439,11.3942439 L3.04178537,11.3942195 Z" id="Shape"></path>
            </g>
        </g>
    </g>
</svg>