<?xml version="1.0" encoding="utf-8"?>
<!-- Generator: Adobe Illustrator 21.1.0, SVG Export Plug-In . SVG Version: 6.00 Build 0)  -->
<svg version="1.1" id="Ebene_1" xmlns="http://www.w3.org/2000/svg" xmlns:xlink="http://www.w3.org/1999/xlink" x="0px" y="0px"
	 viewBox="0 0 12 12" style="enable-background:new 0 0 12 12;" xml:space="preserve">
<style type="text/css">
	.st0{fill:#4E5054;}
</style>
<g>
	<path class="st0" d="M6,1.2C3.3,1.2,1.2,3.3,1.2,6s2.1,4.8,4.8,4.8s4.8-2.1,4.8-4.8S8.7,1.2,6,1.2z M6,8.4C4.7,8.4,3.6,7.3,3.6,6
		S4.7,3.6,6,3.6S8.4,4.7,8.4,6S7.3,8.4,6,8.4z"/>
	<rect x="4.8" class="st0" width="2.4" height="1.5"/>
	<rect x="4.8" y="10.5" class="st0" width="2.4" height="1.5"/>
	<rect x="10.5" y="4.8" class="st0" width="1.5" height="2.4"/>
	<rect y="4.8" class="st0" width="1.5" height="2.4"/>
	<rect x="1.1" y="1.6" transform="matrix(0.7071 -0.7071 0.7071 0.7071 -0.9941 2.4)" class="st0" width="2.5" height="1.7"/>
	<rect x="9.1" y="1.1" transform="matrix(0.7071 -0.7071 0.7071 0.7071 1.2026 7.7033)" class="st0" width="1.7" height="2.5"/>
	<rect x="1.9" y="8.3" transform="matrix(0.7071 -0.7071 0.7071 0.7071 -5.9974 4.721)" class="st0" width="1.7" height="2.5"/>
	<rect x="8.3" y="8.8" transform="matrix(0.7071 -0.7071 0.7071 0.7071 -3.9765 9.6)" class="st0" width="2.5" height="1.7"/>
</g>
</svg>
