<?xml version="1.0" encoding="UTF-8"?>
<svg width="30px" height="30px" viewBox="0 0 30 30" version="1.1" xmlns="http://www.w3.org/2000/svg">
    <!-- Generator: Sketch 48.2 (47327) - http://www.bohemiancoding.com/sketch -->
    <title>noun_922772</title>
    <desc>Created with Sketch.</desc>
    <defs></defs>
    <g id="Footer-Contact-FINAL-Copy" stroke="none" stroke-width="1" fill="none" fill-rule="evenodd" transform="translate(-317.000000, -52.000000)">
        <g id="noun_922772" transform="translate(317.000000, 52.000000)" fill="#008BD0" fill-rule="nonzero">
            <path d="M15,0.407608696 C6.72559792,0.407608696 0,6.987 0,15.0815217 C0,23.1760598 6.72559792,29.7554348 15,29.7554348 C23.2744017,29.7554348 30,23.1760598 30,15.0815217 C30,6.987 23.2744017,0.407608696 15,0.407608696 Z M15,2.03804348 C22.3736687,2.03804348 28.3333333,7.86815217 28.3333333,15.0815217 C28.3333333,22.2948913 22.3736687,28.125 15,28.125 C7.62633083,28.125 1.66666667,22.2948913 1.66666667,15.0815217 C1.66666667,7.86815217 7.62633083,2.03804348 15,2.03804348 Z M15,6.92934783 C12.2846133,6.92934783 10,9.16427853 10,11.8206522 C9.99574976,12.1146488 10.1536461,12.3881098 10.4132274,12.5363215 C10.6728087,12.6845332 10.993858,12.6845332 11.2534393,12.5363215 C11.5130206,12.3881098 11.6709169,12.1146488 11.6666667,11.8206522 C11.6666667,10.103303 13.2445083,8.55978261 15,8.55978261 C16.7554917,8.55978261 18.3333333,10.1033071 18.3333333,11.8206522 C18.3458833,13.2341046 17.5647879,13.963337 16.5364583,14.8777174 C16.0222938,15.3348913 15.4535229,15.814178 14.9869792,16.4189878 C14.5204354,17.0238383 14.1666667,17.7993139 14.1666667,18.7117867 L14.1666667,19.1576087 C14.1624164,19.4516054 14.3203127,19.7250663 14.579894,19.873278 C14.8394753,20.0214897 15.1605247,20.0214897 15.420106,19.873278 C15.6796873,19.7250663 15.8375836,19.4516054 15.8333333,19.1576087 L15.8333333,18.7117867 C15.8333333,18.1876834 15.9955817,17.8140082 16.3151042,17.3997962 C16.6346267,16.9855842 17.124895,16.5602649 17.65625,16.0878057 C18.7165946,15.1449253 20.01238,13.8697541 20,11.8206522 C20,11.8163723 20.0000121,11.8121943 20,11.8079144 C19.992625,9.15720245 17.7109925,6.92934783 15,6.92934783 Z M15,21.1956522 C14.3096433,21.1956522 13.75,21.7431114 13.75,22.4184783 C13.75,23.0938043 14.3096433,23.6413043 15,23.6413043 C15.6903567,23.6413043 16.25,23.0938043 16.25,22.4184783 C16.25,21.7431114 15.6903567,21.1956522 15,21.1956522 Z" id="Shape"></path>
        </g>
    </g>
</svg>