<svg viewBox="0 0 1024 1024" version="1.1" xmlns="http://www.w3.org/2000/svg" width="200" height="200">
    <path d="M473.419 238.794v546.413q0 13.050-10.2 22.613t-24.12 9.563-24.12-9.563l-178.38-167.231h-140.34q-13.92 0-24.12-9.563t-10.2-22.612v-192.881q0-13.050 10.2-22.613t24.12-9.563h140.34l178.38-167.231q10.2-9.563 24.12-9.563t24.12 9.563 10.2 22.612zM679.16 512q0 38.194-22.74 71.044t-60.24 46.969q-5.34 2.531-13.38 2.531-13.92 0-24.12-9.281t-10.2-22.837q0-10.575 6.42-17.831t15.54-12.544 18.24-11.531 15.54-17.831 6.419-28.631-6.419-28.631-15.54-17.831-18.24-11.531-15.54-12.544-6.42-17.831q0-13.556 10.2-22.838t24.12-9.281q8.040 0 13.38 2.531 37.5 13.556 60.24 46.688t22.74 71.325zM816.26 512q0 76.837-45.54 141.862t-120.54 94.669q-6.96 2.531-13.38 2.531-14.46 0-24.66-9.563t-10.2-22.612q0-19.575 20.88-29.644 30-14.569 40.74-22.106 39.66-27.113 61.86-68.063t22.26-87.131-22.26-87.131-61.86-68.063q-10.74-7.537-40.74-22.106-20.88-10.069-20.88-29.644 0-13.050 10.2-22.613t24.12-9.563q6.96 0 13.92 2.531 75 29.644 120.54 94.669t45.54 141.862zM953.42 512q0 115.537-68.040 212.175t-181.080 142.369q-6.96 2.531-13.92 2.531-13.92 0-24.12-9.563t-10.2-22.613q0-18.056 20.88-29.644 3.78-2.025 12.060-5.288t12.060-5.287q24.66-12.544 43.92-25.594 65.88-45.731 102.84-114.019t36.96-145.125-36.96-145.125-102.84-114.019q-19.26-13.050-43.92-25.594-3.78-2.025-12.060-5.287t-12.060-5.287q-20.88-11.531-20.88-29.644 0-13.050 10.2-22.613t24.12-9.563q6.96 0 13.92 2.531 113.040 45.731 181.080 142.369t68.040 212.175z" fill="#ffffff"></path>
</svg>
