<svg viewBox="0 0 1024 1024" version="1.1" xmlns="http://www.w3.org/2000/svg" width="200" height="200">
    <path d="M724.785067 509.9104c0-85.0048-47.224533-155.8432-118.062933-188.900267l0 103.895467 118.062933 118.062933C724.785067 528.801067 724.785067 519.355733 724.785067 509.9104zM842.846933 509.9104c0 42.5024-9.445333 85.0048-23.6128 122.785067l70.837333 70.837333c33.058133-56.669867 47.224533-127.5072 47.224533-198.3456 0-203.067733-141.674667-373.0784-330.574933-415.5808l0 99.172267C743.674667 236.005333 842.846933 358.7904 842.846933 509.9104zM148.638933 84.885333l-61.393067 61.393067L309.204267 368.235733l-221.957333 0 0 283.3504 188.900267 0 236.1248 236.1248L512.272 571.303467l203.067733 203.067733c-33.057067 23.6128-66.1152 42.5024-108.6176 56.669867l0 99.172267c66.1152-14.167467 122.785067-42.5024 174.7328-85.0048l94.450133 94.450133 61.393067-61.393067L512.272 453.240533 148.638933 84.885333zM512.272 132.110933l-99.172267 99.172267 99.172267 99.172267L512.272 132.110933z" fill="#ffffff"></path>
</svg>
