<?xml version="1.0" encoding="UTF-8"?>
<svg width="41px" height="40px" viewBox="0 0 41 40" version="1.1" xmlns="http://www.w3.org/2000/svg" xmlns:xlink="http://www.w3.org/1999/xlink">
    <!-- Generator: Sketch 50.2 (55047) - http://www.bohemiancoding.com/sketch -->
    <title>visualstudio-logo</title>
    <desc>Created with Sketch.</desc>
    <defs>
        <polygon id="path-1" points="0 0.069943804 40.109586 0.069943804 40.109586 39.9999789 0 39.9999789"></polygon>
    </defs>
    <g id="Page-1" stroke="none" stroke-width="1" fill="none" fill-rule="evenodd">
        <g id="1.1-My-Workspace-Emtpy_newModule_Inactive" transform="translate(-576.000000, -863.000000)">
            <g id="01" transform="translate(183.000000, 792.000000)">
                <g id="visualstudio-logo" transform="translate(393.000000, 71.000000)">
                    <mask id="mask-2" fill="white">
                        <use xlink:href="#path-1"></use>
                    </mask>
                    <g id="Clip-2"></g>
                    <path d="M30.3471579,11.4136639 C26.4985965,14.3119095 22.7353684,17.1458744 18.9162105,20.0219446 C22.7402105,22.9006814 26.5024561,25.7329621 30.3471579,28.6272779 L30.3471579,11.4136639 Z M0,29.845734 C0.124140351,29.7584358 0.263719298,29.6867867 0.370245614,29.5816639 C3.47522807,26.5175235 6.57705263,23.4504358 9.67873684,20.3831375 C10.0477895,20.0181551 10.0427368,20.0197691 9.67852632,19.6598393 C6.52589474,16.5442604 3.37452632,13.4274183 0.223368421,10.3103656 C0.166877193,10.254506 0.117263158,10.1916288 0.0383157895,10.1025761 C0.158807018,10.0522604 0.248631579,10.0079095 0.342807018,9.97654106 C1.45052632,9.60650597 2.56070175,9.24362878 3.66568421,8.86538316 C3.88975439,8.78868141 4.04814035,8.82004983 4.23866667,8.96419018 C7.32477193,11.2984358 10.4205614,13.6198393 13.502807,15.9592077 C13.7987368,16.1838393 13.9575439,16.1708568 14.2203509,15.9102253 C19.4684211,10.705734 24.7289123,5.51366386 29.9764912,0.308611233 C30.2440702,0.0432077244 30.4501754,0.0098042156 30.7894035,0.155769128 C33.7180351,1.41619018 36.6516491,2.66531299 39.5927018,3.89626036 C39.9695439,4.05394457 40.1101754,4.23415509 40.109614,4.65703229 C40.0959298,14.9135937 40.0969825,25.1700849 40.1069474,35.4266463 C40.1072982,35.794927 40.0054035,35.9747867 39.6530526,36.1222253 C36.6470175,37.3796288 33.6496842,38.6578042 30.6545965,39.9413832 C30.4080702,40.0469972 30.2639298,40.010506 30.0784561,39.826927 C24.8090526,34.6107165 19.5339649,29.4001902 14.2594386,24.1891025 C13.805193,23.7401902 13.9016842,23.7993481 13.4467368,24.1413832 C10.3726316,26.4527516 7.30021053,28.7663656 4.23207018,31.0856639 C4.04301754,31.2285411 3.88505263,31.2585761 3.65747368,31.1797691 C2.544,30.7941551 1.4237193,30.42812 0.306105263,30.054506 C0.230105263,30.0291025 0.156070175,29.9978744 0.0810526316,29.9693832 C0.0540350877,29.9281902 0.0270175439,29.886927 0,29.845734 Z" id="Fill-1" fill="#008BD0" mask="url(#mask-2)"></path>
                </g>
            </g>
        </g>
    </g>
</svg>