<?xml version="1.0" encoding="UTF-8"?>
<svg width="32px" height="32px" viewBox="0 0 32 32" version="1.1" xmlns="http://www.w3.org/2000/svg" xmlns:xlink="http://www.w3.org/1999/xlink">
    <!-- Generator: Sketch 50.2 (55047) - http://www.bohemiancoding.com/sketch -->
    <title>wiki_world</title>
    <desc>Created with Sketch.</desc>
    <defs></defs>
    <g id="Page-1" stroke="none" stroke-width="1" fill="none" fill-rule="evenodd">
        <g id="1.1-My-Workspace-Emtpy_newModule_Inactive" transform="translate(-187.000000, -1777.000000)" fill="#2B2E30" fill-rule="nonzero">
            <g id="Bar/-read-wiki" transform="translate(0.000000, 1768.000000)">
                <g id="wiki_world" transform="translate(187.000000, 9.000000)">
                    <path d="M16.011497,0.000638709806 C16.0076647,0.000638709806 16.0038323,0 16,0 C15.9961677,0 15.9923353,0.000638709806 15.988503,0.000638709806 C7.17157685,0.00638709806 0,7.18101435 0,15.9996806 C0,24.8145147 7.16518962,31.9859484 15.977006,31.9987226 C15.9846707,31.9987226 15.9923353,32 16,32 C16.0076647,32 16.0153293,31.9987226 16.022994,31.9987226 C24.8348104,31.9859484 32,24.8145147 32,15.9996806 C32,7.18101435 24.8284232,0.00638709806 16.011497,0.000638709806 Z M1.4556487,16.7182292 L2.46738523,16.7182292 L2.49165669,16.7182292 L8.5352495,16.7182292 C8.5748503,18.7397457 8.78243513,20.6520429 9.12862275,22.3969981 L2.92151697,22.3969981 C2.07201597,20.6680106 1.5546507,18.7474102 1.4556487,16.7182292 Z M16.7185629,8.24893715 L16.7185629,1.56675515 C18.4118164,2.1102972 20.0782435,4.52909124 21.0823154,8.24893715 L16.7185629,8.24893715 Z M21.4240319,9.68603421 C21.7670259,11.3549829 21.9784431,13.2334285 22.0199601,15.2811321 L16.7185629,15.2811321 L16.7185629,9.68603421 L21.4240319,9.68603421 Z M15.2814371,1.56675515 L15.2814371,8.24893715 L10.9170459,8.24893715 C11.9217565,4.52972995 13.5875449,2.1102972 15.2814371,1.56675515 Z M15.2814371,9.68603421 L15.2814371,15.2811321 L9.98003992,15.2811321 C10.0209182,13.2334285 10.2329741,11.3549829 10.5759681,9.68603421 L15.2814371,9.68603421 Z M8.53461078,15.2811321 L2.49101796,15.2811321 L2.46674651,15.2811321 L1.45500998,15.2811321 C1.55273453,13.285164 2.05349301,11.3933055 2.87808383,9.68603421 L9.11073852,9.68603421 C8.77477046,11.4079958 8.57421158,13.2921898 8.53461078,15.2811321 Z M9.98003992,16.7182292 L15.2814371,16.7182292 L15.2814371,22.3969981 L10.594491,22.3969981 C10.2406387,20.7069719 10.0221956,18.8004231 9.98003992,16.7182292 Z M15.2814371,23.8340951 L15.2814371,30.4326061 C13.6003194,29.8935351 11.9466667,27.5066765 10.9400399,23.8340951 L15.2814371,23.8340951 Z M16.7185629,30.4326061 L16.7185629,23.8340951 L21.0599601,23.8340951 C20.0533333,27.5066765 18.3996806,29.8935351 16.7185629,30.4326061 Z M16.7185629,22.3969981 L16.7185629,16.7182292 L22.0199601,16.7182292 C21.9784431,18.8004231 21.7593613,20.7069719 21.4061477,22.3969981 L16.7185629,22.3969981 Z M23.4653892,16.7182292 L29.2669062,16.7182292 L29.5096208,16.7182292 L30.54499,16.7182292 C30.445988,18.7474102 29.9286228,20.6680106 29.0791218,22.3969981 L22.8713772,22.3969981 C23.2182036,20.6520429 23.4251497,18.7397457 23.4653892,16.7182292 Z M29.508982,15.2811321 L29.2662675,15.2811321 L23.4647505,15.2811321 C23.4251497,13.2921898 23.2252295,11.4079958 22.8886228,9.68603421 L29.1219162,9.68603421 C29.946507,11.3933055 30.4466267,13.285164 30.54499,15.2811321 L29.508982,15.2811321 Z M28.3196806,8.24893715 L22.5667066,8.24893715 C21.8807186,5.54144628 20.8402395,3.33023293 19.5691816,1.88100038 C23.2367265,2.80904573 26.3517764,5.13203329 28.3196806,8.24893715 Z M12.4301796,1.88163909 C11.1597605,3.33087164 10.1192814,5.54144628 9.43329341,8.24957586 L3.68031936,8.24957586 C5.64822355,5.13203329 8.76327345,2.80904573 12.4301796,1.88163909 Z M3.73397206,23.8340951 L9.45500998,23.8340951 C10.1416367,26.5032634 11.1725349,28.6844574 12.4301796,30.1183609 C8.7958483,29.1986188 5.70443114,26.9088441 3.73397206,23.8340951 Z M19.5698204,30.1177222 C20.8274651,28.6838187 21.8583633,26.5026247 22.54499,23.8334564 L28.2660279,23.8334564 C26.2955689,26.9088441 23.203513,29.1986188 19.5698204,30.1177222 Z" id="Shape"></path>
                </g>
            </g>
        </g>
    </g>
</svg>