<?xml version="1.0" encoding="UTF-8"?>
<svg width="30px" height="30px" viewBox="0 0 30 30" version="1.1" xmlns="http://www.w3.org/2000/svg" xmlns:xlink="http://www.w3.org/1999/xlink">
    <!-- Generator: Sketch 48.2 (47327) - http://www.bohemiancoding.com/sketch -->
    <title>Page 1</title>
    <desc>Created with Sketch.</desc>
    <defs>
        <polygon id="path-1" points="0.000133333333 0 30 0 30 30 0.000133333333 30"></polygon>
    </defs>
    <g id="Footer-Contact-FINAL-Copy" stroke="none" stroke-width="1" fill="none" fill-rule="evenodd" transform="translate(-625.000000, -51.000000)">
        <g id="Page-1" transform="translate(625.000000, 51.000000)">
            <g id="Group-3">
                <mask id="mask-2" fill="white">
                    <use xlink:href="#path-1"></use>
                </mask>
                <g id="Clip-2"></g>
                <path d="M25.6334667,23.8666667 C24.5331333,23.3 23.2334667,22.8 21.8001333,22.4333333 C22.4331333,20.2333333 22.8001333,17.7 22.8001333,14.9666667 C22.8001333,12.2333333 22.4331333,9.7 21.8001333,7.5 C23.2334667,7.13333333 24.5331333,6.66666667 25.6334667,6.06666667 C27.6334667,8.46666667 28.8664667,11.5666667 28.8664667,14.9333333 C28.8664667,18.3 27.6334667,21.4666667 25.6334667,23.8666667 M18.5668,28.3666667 C19.7334667,27.2333333 20.6998,25.6 21.4001333,23.5666667 C22.6334667,23.9 23.7664667,24.3 24.7664667,24.7666667 C23.0998,26.4666667 20.9668,27.7333333 18.5668,28.3666667 M9.73346667,23.3 C11.3668,22.9666667 13.1334667,22.7666667 15.0001333,22.7666667 C16.8664667,22.7666667 18.6334667,22.9666667 20.2664667,23.3 C19.0331333,26.6333333 17.1334667,28.8333333 15.0001333,28.8333333 C12.8668,28.8333333 10.9668,26.6333333 9.73346667,23.3 M5.20013333,24.7666667 C6.20013333,24.3 7.33346667,23.8666667 8.5668,23.5666667 C9.30013333,25.6 10.2664667,27.2333333 11.4001333,28.3666667 C9.03346667,27.7333333 6.90013333,26.4666667 5.20013333,24.7666667 M1.1668,15 C1.1668,11.6333333 2.3668,8.53333333 4.40013333,6.13333333 C5.50013333,6.7 6.80013333,7.2 8.23346667,7.56666667 C7.5998,9.76666667 7.23346667,12.3 7.23346667,15.0333333 C7.23346667,17.7666667 7.5998,20.3 8.23346667,22.5 C6.80013333,22.8666667 5.50013333,23.3333333 4.40013333,23.9333333 C2.3668,21.4666667 1.1668,18.3666667 1.1668,15 M11.4331333,1.63333333 C10.2664667,2.76666667 9.30013333,4.4 8.5998,6.43333333 C7.3668,6.1 6.23346667,5.7 5.23346667,5.23333333 C6.90013333,3.53333333 9.03346667,2.26666667 11.4331333,1.63333333 M20.2664667,6.7 C18.6334667,7.03333333 16.8664667,7.23333333 15.0001333,7.23333333 C13.1334667,7.23333333 11.3668,7.03333333 9.73346667,6.7 C10.9668,3.36666667 12.8668,1.16666667 15.0001333,1.16666667 C17.1334667,1.16666667 19.0331333,3.36666667 20.2664667,6.7 M21.6334667,15 C21.6334667,17.6 21.2664667,20.0666667 20.6334667,22.2 C18.9001333,21.8333333 17.0001333,21.6333333 15.0001333,21.6333333 C13.0001333,21.6333333 11.0998,21.8333333 9.3668,22.2 C8.73346667,20.1 8.3668,17.6333333 8.3668,15 C8.3668,12.4 8.73346667,9.93333333 9.3668,7.8 C11.0998,8.16666667 13.0001333,8.36666667 15.0001333,8.36666667 C17.0001333,8.36666667 18.9001333,8.16666667 20.6334667,7.8 C21.2664667,9.93333333 21.6334667,12.4 21.6334667,15 M24.8001333,5.23333333 C23.8001333,5.7 22.6668,6.13333333 21.4331333,6.43333333 C20.6998,4.4 19.7334667,2.76666667 18.5998,1.63333333 C20.9668,2.26666667 23.0998,3.53333333 24.8001333,5.23333333 M26.6334667,5.53333333 C26.3664667,5.23333333 26.0998,4.93333333 25.8334667,4.63333333 C23.0998,1.8 19.2664667,-1.42108547e-14 15.0001333,-1.42108547e-14 C10.7334667,-1.42108547e-14 6.90013333,1.8 4.1668,4.63333333 C3.90013333,4.93333333 3.63346667,5.23333333 3.3668,5.53333333 C1.26646667,8.13333333 0.000133333333,11.4333333 0.000133333333,15 C0.000133333333,18.5666667 1.26646667,21.8666667 3.3668,24.4666667 C3.63346667,24.7666667 3.90013333,25.0666667 4.1668,25.3666667 C6.90013333,28.2 10.7334667,30 15.0001333,30 C19.2664667,30 23.0998,28.2 25.8334667,25.3666667 C26.0998,25.0666667 26.3664667,24.7666667 26.6334667,24.4666667 C28.7334667,21.8666667 30.0001333,18.5666667 30.0001333,15 C30.0001333,11.4333333 28.7334667,8.13333333 26.6334667,5.53333333" id="Fill-1" fill="#008BD0" mask="url(#mask-2)"></path>
            </g>
            <path d="M13.7732849,10.236998 C13.7732849,9.80908492 14.0118128,9.67741935 14.352567,9.67741935 L15.0681508,9.67741935 C15.408905,9.67741935 15.647433,9.80908492 15.647433,10.236998 L15.647433,10.7965767 C15.647433,11.2244898 15.408905,11.3561554 15.0681508,11.3561554 L14.352567,11.3561554 C14.0118128,11.3561554 13.7732849,11.2244898 13.7732849,10.7965767 L13.7732849,10.236998 Z M15.647433,18.1698486 L16.5674693,18.1698486 C16.9763744,18.1698486 17.4193548,18.2685978 17.4193548,18.7623436 C17.4193548,19.2890059 16.942299,19.3548387 16.5674693,19.3548387 L13.4325307,19.3548387 C13.057701,19.3548387 12.5806452,19.2890059 12.5806452,18.7623436 C12.5806452,18.2356814 13.0236256,18.1698486 13.4325307,18.1698486 L14.4207179,18.1698486 L14.4207179,13.8578012 L13.4325307,13.8578012 C13.057701,13.8578012 12.5806452,13.7919684 12.5806452,13.2653061 C12.5806452,12.7386438 13.0236256,12.6728111 13.4325307,12.6728111 L14.7273966,12.6728111 C15.4429805,12.6728111 15.647433,12.8044766 15.647433,13.4957209 L15.647433,18.1698486 Z" id="Fill-4" fill="#008BD0"></path>
        </g>
    </g>
</svg>