<?xml version="1.0" encoding="UTF-8"?>
<svg width="50px" height="22px" viewBox="0 0 50 22" version="1.1" xmlns="http://www.w3.org/2000/svg" xmlns:xlink="http://www.w3.org/1999/xlink">
    <!-- Generator: Sketch 48.2 (47327) - http://www.bohemiancoding.com/sketch -->
    <title>Workflow Logo</title>
    <desc>Created with Sketch.</desc>
    <defs></defs>
    <g id="Symbols" stroke="none" stroke-width="1" fill="none" fill-rule="evenodd">
        <g id="Workflow-Logo" fill="#008BD0">
            <g id="Group" transform="translate(1.000000, 1.000000)">
                <path d="M47.6552824,4.76415094 C47.8843014,4.95283019 48.0675166,5.23584906 47.975909,5.56603774 L47.8843014,14.6698113 C47.8843014,14.6698113 47.8843014,14.7169811 47.8843014,14.7169811 C47.8843014,14.7641509 47.8843014,14.8113208 47.8843014,14.8584906 C47.8843014,14.8584906 47.8843014,14.9056604 47.8843014,14.9056604 C47.8384976,15 47.8384976,15.0471698 47.7926938,15.0943396 C47.74689,15.1415094 47.7010862,15.2358491 47.6552824,15.2830189 C47.6552824,15.2830189 47.6094785,15.3301887 47.6094785,15.3301887 C47.6094785,15.3773585 47.5636747,15.3773585 47.5178709,15.4245283 L39.7770276,19.9056604 C39.6396162,19.9528302 39.5022048,20 39.3647933,20 C39.1815781,20 39.0441667,19.9528302 38.9067553,19.8584906 L31.3033234,15.1886792 C31.0285005,15.0471698 30.8910891,14.7641509 30.8910891,14.4339623 L30.9826967,5.33018868 C30.9826967,5.04716981 31.1659119,4.71698113 31.4407348,4.5754717 L39.1815781,0.0943396226 C39.2273819,0.0943396226 39.2273819,0.0943396226 39.2273819,0.0943396226 C39.2731857,0.0943396226 39.3189895,0.0471698113 39.3647933,0.0471698113 C39.3647933,0.0471698113 39.4105972,0.0471698113 39.4105972,0.0471698113 C39.456401,0 39.5480086,0 39.5938124,0 C39.5938124,0 39.6396162,0 39.6396162,0 C39.7312238,0.0471698113 39.7770276,0.0471698113 39.8228314,0.0471698113 C39.8228314,0.0471698113 39.8686352,0.0471698113 39.8686352,0.0471698113 C39.914439,0.0471698113 39.9602428,0.0471698113 40.0060466,0.0943396226 C40.0060466,0.0943396226 40.0518504,0.0943396226 40.0518504,0.0943396226 L47.6552824,4.76415094 Z M32.3971305,7.0754717 L32.3030029,14.1509434 L38.3742323,17.7358491 L38.4683599,10.6603774 L32.3971305,7.0754717 Z M39.4096358,1.88679245 L33.2442788,5.33018868 L39.3155082,8.91509434 L45.4808652,5.47169811 L39.4096358,1.88679245 Z M40.3979755,10.5188679 L40.3038479,17.5943396 L46.4692049,14.1509434 L46.5633325,7.0754717 L40.3979755,10.5188679 Z" id="Combined-Shape"></path>
                <path d="M31.972114,4.76415094 C32.2011331,4.95283019 32.3843483,5.23584906 32.2927407,5.56603774 L32.2011331,14.6698113 C32.2011331,14.6698113 32.2011331,14.7169811 32.2011331,14.7169811 C32.2011331,14.7641509 32.2011331,14.8113208 32.2011331,14.8584906 C32.2011331,14.8584906 32.2011331,14.9056604 32.2011331,14.9056604 C32.1553293,15 32.1553293,15.0471698 32.1095255,15.0943396 C32.0637217,15.1415094 32.0179178,15.2358491 31.972114,15.2830189 C31.972114,15.2830189 31.9263102,15.3301887 31.9263102,15.3301887 C31.9263102,15.3773585 31.8805064,15.3773585 31.8347026,15.4245283 L24.0938593,19.9056604 C23.9564479,19.9528302 23.8190364,20 23.681625,20 C23.4984098,20 23.3609984,19.9528302 23.223587,19.8584906 L15.6201551,15.1886792 C15.3453322,15.0471698 15.2079208,14.7641509 15.2079208,14.4339623 L15.2995284,5.33018868 C15.2995284,5.04716981 15.4827436,4.71698113 15.7575665,4.5754717 L23.4984098,0.0943396226 C23.5442136,0.0943396226 23.5442136,0.0943396226 23.5442136,0.0943396226 C23.5900174,0.0943396226 23.6358212,0.0471698113 23.681625,0.0471698113 C23.681625,0.0471698113 23.7274288,0.0471698113 23.7274288,0.0471698113 C23.7732326,0 23.8648403,0 23.9106441,0 C23.9106441,0 23.9564479,0 23.9564479,0 C24.0480555,0.0471698113 24.0938593,0.0471698113 24.1396631,0.0471698113 C24.1396631,0.0471698113 24.1854669,0.0471698113 24.1854669,0.0471698113 C24.2312707,0.0471698113 24.2770745,0.0471698113 24.3228783,0.0943396226 C24.3228783,0.0943396226 24.3686821,0.0943396226 24.3686821,0.0943396226 L31.972114,4.76415094 Z M16.7139622,7.0754717 L16.6198346,14.1509434 L22.691064,17.7358491 L22.7851916,10.6603774 L16.7139622,7.0754717 Z M23.7264675,1.88679245 L17.5611105,5.33018868 L23.6323399,8.91509434 L29.7976969,5.47169811 L23.7264675,1.88679245 Z M24.7148072,10.5188679 L24.6206796,17.5943396 L30.7860366,14.1509434 L30.8801642,7.0754717 L24.7148072,10.5188679 Z" id="Combined-Shape"></path>
                <path d="M16.7641932,4.76415094 C16.9932123,4.95283019 17.1764275,5.23584906 17.0848199,5.56603774 L16.9932123,14.6698113 C16.9932123,14.6698113 16.9932123,14.7169811 16.9932123,14.7169811 C16.9932123,14.7641509 16.9932123,14.8113208 16.9932123,14.8584906 C16.9932123,14.8584906 16.9932123,14.9056604 16.9932123,14.9056604 C16.9474085,15 16.9474085,15.0471698 16.9016047,15.0943396 C16.8558009,15.1415094 16.8099971,15.2358491 16.7641932,15.2830189 C16.7641932,15.2830189 16.7183894,15.3301887 16.7183894,15.3301887 C16.7183894,15.3773585 16.6725856,15.3773585 16.6267818,15.4245283 L8.8859385,19.9056604 C8.74852708,19.9528302 8.61111566,20 8.47370424,20 C8.29048901,20 8.15307759,19.9528302 8.01566617,19.8584906 L0.41223426,15.1886792 C0.13741142,15.0471698 0,14.7641509 0,14.4339623 L0.0916076134,5.33018868 C0.0916076134,5.04716981 0.27482284,4.71698113 0.54964568,4.5754717 L8.29048901,0.0943396226 C8.33629282,0.0943396226 8.33629282,0.0943396226 8.33629282,0.0943396226 C8.38209662,0.0943396226 8.42790043,0.0471698113 8.47370424,0.0471698113 C8.47370424,0.0471698113 8.51950804,0.0471698113 8.51950804,0.0471698113 C8.56531185,0 8.65691946,0 8.70272327,0 C8.70272327,0 8.74852708,0 8.74852708,0 C8.84013469,0.0471698113 8.8859385,0.0471698113 8.9317423,0.0471698113 C8.9317423,0.0471698113 8.97754611,0.0471698113 8.97754611,0.0471698113 C9.02334992,0.0471698113 9.06915372,0.0471698113 9.11495753,0.0943396226 C9.11495753,0.0943396226 9.16076134,0.0943396226 9.16076134,0.0943396226 L16.7641932,4.76415094 Z M1.50604141,7.0754717 L1.41191382,14.1509434 L7.48314323,17.7358491 L7.57727082,10.6603774 L1.50604141,7.0754717 Z M8.5185467,1.88679245 L2.3531897,5.33018868 L8.42441911,8.91509434 L14.5897761,5.47169811 L8.5185467,1.88679245 Z M9.50688637,10.5188679 L9.41275878,17.5943396 L15.5781158,14.1509434 L15.6722434,7.0754717 L9.50688637,10.5188679 Z" id="Combined-Shape"></path>
            </g>
        </g>
    </g>
</svg>