<?xml version="1.0" encoding="UTF-8"?>
<svg width="17px" height="20px" viewBox="0 0 17 20" version="1.1" xmlns="http://www.w3.org/2000/svg" xmlns:xlink="http://www.w3.org/1999/xlink">
    <!-- Generator: Sketch 49.1 (51147) - http://www.bohemiancoding.com/sketch -->
    <title>Combined Shape</title>
    <desc>Created with Sketch.</desc>
    <defs></defs>
    <g id="Page-1" stroke="none" stroke-width="1" fill="none" fill-rule="evenodd">
        <g id="Workflow-Details-MVP" transform="translate(-1041.000000, -304.000000)" fill="#737678">
            <path d="M1050.87097,306.162162 L1058,306.162162 L1058,308.324324 L1056.90323,308.324324 L1056.90323,322 C1056.90323,323.104569 1056.0078,324 1054.90323,324 L1044.09677,324 C1042.9922,324 1042.09677,323.104569 1042.09677,322 L1042.09677,308.324324 L1041,308.324324 L1041,306.162162 L1048.12903,306.162162 L1048.12903,304 L1050.87097,304 L1050.87097,306.162162 Z M1044.29032,308.324324 L1044.29032,321.837838 L1054.70968,321.837838 L1054.70968,308.324324 L1044.29032,308.324324 Z M1046.48387,311.567568 L1048.67742,311.567568 L1048.67742,318.594595 L1046.48387,318.594595 L1046.48387,311.567568 Z M1050.32258,311.567568 L1052.51613,311.567568 L1052.51613,318.594595 L1050.32258,318.594595 L1050.32258,311.567568 Z" id="Combined-Shape"></path>
        </g>
    </g>
</svg>
